<?xml version="1.0" encoding="utf-8"?>
<!-- Generator: Adobe Illustrator 16.0.4, SVG Export Plug-In . SVG Version: 6.00 Build 0)  -->
<!DOCTYPE svg PUBLIC "-//W3C//DTD SVG 1.1//EN" "http://www.w3.org/Graphics/SVG/1.1/DTD/svg11.dtd">
<svg version="1.1" id="Layer_1" xmlns="http://www.w3.org/2000/svg" xmlns:xlink="http://www.w3.org/1999/xlink" x="0px" y="0px"
	 width="300px" height="300px" viewBox="0 0 300 300" enable-background="new 0 0 300 300" xml:space="preserve">
<g>
	<path fill="none" d="M64.514,660.705c6.51-1.822,13.086-3.621,19.558-5.399c-2.458-21.546-23.381-41.408-44.414-42.579
		c0-0.001-0.124-0.002-0.131-0.002c-0.001,0.003-0.003,0.006-0.004,0.009c21.198,1.222,41.983,21.058,44.438,42.572
		c-6.473,1.778-12.993,3.577-19.503,5.399c-6.709,1.879-13.396,4.049-20.094,5.755c5.056-1.286,10.139-2.839,15.212-4.33
		C61.222,661.645,62.868,661.166,64.514,660.705z"/>
	<path fill="none" d="M305.911,408.899c-7.071-6.759-14.086-13.553-21.186-20.305c-4.149-3.946-9.763-6.055-15.315-6.062
		c5.541,0.01,11.139,2.119,15.286,6.062C291.796,395.346,298.83,402.14,305.911,408.899z"/>
	<path fill="none" d="M257.286,386.449c-5.09,3.834-9.466,8.646-13.438,12.354c14.637,15.025,29.094,29.888,43.611,44.804
		c-14.509-14.916-28.944-29.779-43.581-44.804C247.851,395.095,252.196,390.284,257.286,386.449z"/>
	<path fill="none" d="M38.962,614.026c-0.108,0.248-0.211,0.499-0.281,0.754c-1.914,6.913-3.806,13.842-5.768,20.739
		c1.962-6.897,3.894-13.826,5.807-20.739C38.791,614.525,38.875,614.274,38.962,614.026z"/>
	<path fill="none" d="M300.437,456.936c0.001,0,0.002,0.002,0.003,0.002c6.493-7.406,14.942-12.479,18.049-22.096
		C315.382,444.457,306.929,449.531,300.437,456.936z"/>
	<path fill="#FFFFFF" d="M44.364,667c0.009,0,0.018,0,0.027,0c5.056-2,10.12-2.839,15.185-4.33C54.503,664.161,49.42,665,44.364,667
		z"/>
	<path fill="#FFFFFF" d="M39.435,612.727c-0.007-0.001-0.013-0.002-0.02-0.002c-0.23,0.657-0.538,1.344-0.734,2.056
		c0.07-0.255,0.173-0.506,0.281-0.754C39.117,613.582,39.286,613.147,39.435,612.727z"/>
	<path d="M312.163,414.872c-2.101-1.986-4.179-3.978-6.266-5.973c-7.081-6.759-14.109-13.553-21.209-20.305
		c-4.146-3.943-9.741-6.052-15.282-6.062c-4.045-0.005-8.056,1.105-11.45,3.435c-0.227,0.155-0.448,0.316-0.67,0.482
		c-5.092,3.834-9.436,8.646-13.408,12.354c14.637,15.025,29.071,29.888,43.58,44.804c4.318,4.437,8.642,8.876,12.979,13.328
		c6.492-7.404,14.919-12.479,18.025-22.094c0.101-0.311,0.258-0.625,0.258-0.945c0-2.463,0-4.927,0-7.391
		C316.72,422.195,315.585,418.105,312.163,414.872z"/>
	<path d="M312.194,414.872c-2.102-1.986-4.193-3.978-6.283-5.973c2.087,1.995,4.178,3.987,6.278,5.973
		c3.421,3.234,5.445,7.324,6.582,11.634C317.635,422.195,315.615,418.105,312.194,414.872z"/>
	<path d="M257.958,385.967c3.394-2.33,7.406-3.44,11.452-3.435C265.368,382.525,261.354,383.636,257.958,385.967z"/>
	<path d="M257.286,386.449c0.222-0.166,0.445-0.327,0.672-0.482C257.731,386.123,257.507,386.284,257.286,386.449z"/>
	<path d="M300.435,456.938l0.002-0.002c-4.337-4.452-8.659-8.892-12.978-13.328C291.775,448.045,296.097,452.485,300.435,456.938z"
		/>
	<path d="M83.961,655.306c-2.455-21.515-23.24-41.351-44.438-42.572c-0.147,0.419-0.368,0.851-0.561,1.293
		c-0.087,0.248-0.171,0.499-0.242,0.754c-1.913,6.913-3.845,13.842-5.807,20.739c-1.64,5.764-3.488,11.49-5.193,17.234
		c0,1.516,0,3.031,0,4.547c1.705,3.984,4.587,7.699,8.687,9.699c2.652,0,5.305,0,7.958,0c6.698-2,13.385-4.146,20.094-6.024
		C70.968,659.152,77.488,657.084,83.961,655.306z"/>
	<path d="M39.522,612.733c-0.029-0.002-0.059-0.006-0.088-0.007c-0.148,0.421-0.317,0.855-0.473,1.3
		C39.154,613.584,39.375,613.152,39.522,612.733z"/>
	<path d="M84.103,655.306c-6.473,1.778-13.063,3.577-19.573,5.399c-1.646,0.461-3.299,0.939-4.945,1.425
		c1.648-0.485,3.292-0.964,4.938-1.425c6.51-1.822,13.119-3.621,19.593-5.399c-2.46-21.552-23.396-41.421-44.396-42.581
		c0,0,0,0.001,0,0.002C60.72,613.897,81.645,633.76,84.103,655.306z"/>
	<path d="M84.082,655.306c-6.473,1.778-13.054,3.577-19.563,5.399c-1.646,0.461-3.294,0.939-4.942,1.425
		c-5.064,1.491-10.129,3.044-15.185,4.33c6.699-1.706,13.433-3.876,20.141-5.755C71.042,658.883,77.609,657.084,84.082,655.306z"/>
	<path d="M89.966,620.364c-0.699,0.689-1.809,1.849-1.617,2.412c1.392,4.112-0.364,7.8-1.096,11.662
		c-0.702,3.708-0.486,7.405,2.388,10.366c4.164,4.292,14.167,4.41,18.401,0.258c54.763-53.719,109.532-107.428,164.279-161.16
		c3.634-3.566,7.098-7.304,10.415-10.727c-6.929-7.059-13.932-14.19-21.019-21.408c-0.655,0.613-1.282,1.178-1.885,1.769
		c-36.425,35.762-72.848,71.526-109.271,107.29C130.358,580.667,110.149,600.504,89.966,620.364z"/>
	<path d="M223.548,418.45C165.9,475.029,108.253,531.61,50.609,588.193c-3.438,3.375-3.939,6.115-1.694,10.462
		c3.379,6.54,9.118,9.622,16.188,9.548c2.48-0.026,5.378,0.232,7.827-2.178c56.873-56.014,113.854-111.921,170.844-167.818
		c0.724-0.709,1.813-1.041,2.429-1.381c-7.143-7.377-13.521-13.965-20.111-20.772C225.053,417.031,224.286,417.726,223.548,418.45z"
		/>
</g>
<rect x="-698.502" y="158.481" fill="none" width="300" height="281.481"/>
<text transform="matrix(1 0 0 1 -698.5024 167.0015)"><tspan x="0" y="0" font-family="'MyriadPro-Regular'" font-size="12">Draw: https://cdn3.iconfinder.com/data/icons/mean</tspan><tspan x="263.538" y="0" font-family="'MyriadPro-Regular'" font-size="12">-</tspan><tspan x="0" y="14.4" font-family="'MyriadPro-Regular'" font-size="12">cons-base/512/meanicons_76-512.png </tspan></text>
<g>
	<path d="M217.86,98.322c-12.295-28.497-35.061-43.835-69.299-44.496c-3.602,0.482-9.707,0.767-15.548,2.165
		c-53.357,12.764-73.727,79.278-36.835,120.729c10.449,11.74,18.716,24.217,20.661,40.167c0.335,2.753,1.369,5.967,4.754,4.592
		c1.93-0.785,4.264-4.124,4.053-6.053c-1.654-15.097-7.404-28.712-18.17-39.473c-11.89-11.888-18.982-25.545-20.561-42.403
		c-4.135-44.147,36.256-79.502,79.17-68.584c24.488,6.23,40.143,22.468,46.648,46.554c6.579,24.355-0.129,45.604-18.256,63.219
		c-8.936,8.682-14.996,19.065-16.866,31.438c-0.544,3.601-1.848,4.572-5.076,5.328c-17.302,4.049-34.58,8.227-51.743,12.814
		c-2.255,0.603-3.813,3.812-5.694,5.812c2.481,1.141,5.295,3.694,7.389,3.201c19.499-4.604,38.902-9.622,58.238-14.871
		c2.025-0.551,4.757-3.254,4.922-5.153c1.296-14.944,9.631-25.762,19.271-36.336C226.127,153.707,230.019,126.508,217.86,98.322z"/>
	<path d="M153.544,202.564c-0.403,3.091,0.312,6.295,4.569,6.375c4.135,0.08,4.335-3.114,4.325-5.928
		c-0.058-15.952,3.692-31.075,9.43-45.835c2.381-6.125-0.175-9.635-6.545-8.317c-5.402,1.118-10.506,3.677-14.002,4.959
		c-7.116-1.93-13.064-4.125-19.203-5.026c-4.957-0.727-6.938,2.448-4.958,7.151c6.324,15.02,9.632,30.615,9.636,46.915
		c0.002,2.985,0.233,5.951,4.274,6.003c4.163,0.054,5.037-2.971,4.935-6.162c-0.182-5.672-0.319-11.403-1.267-16.975
		c-1.472-8.672-3.604-17.231-5.752-27.214c2.357,2.579,4.19,4.139,5.463,6.068c2.852,4.326,5.899,3.993,9.38,0.926
		c1.849-1.629,3.771-3.173,5.661-4.756c0.357,2.915-0.513,4.995-0.851,7.16C156.841,179.444,155.052,190.988,153.544,202.564z"/>
	<path d="M179.637,251.383c-20.199,4.873-40.312,10.107-60.368,15.543c-1.449,0.394-3.267,3.23-3.103,4.731
		c0.176,1.595,2.51,2.955,3.653,4.158c5.061-1.249,9.09-2.246,13.12-3.239c15.773-3.886,31.556-7.737,47.312-11.685
		c3.241-0.812,6.801-2.29,5.54-6.311C185.282,252.958,181.424,250.951,179.637,251.383z"/>
	<path d="M119.289,254.394c1.958-0.18,2.538-0.16,3.081-0.295c19.778-4.907,39.582-9.715,59.275-14.935
		c1.843-0.489,4.305-3.681,4.186-5.466c-0.244-3.688-3.825-3.756-6.654-3.067c-19.98,4.857-39.949,9.771-59.839,14.979
		c-1.476,0.387-3.233,3.242-3.179,4.895C116.208,252.04,118.507,253.501,119.289,254.394z"/>
	<path d="M165.162,276.293c-9.214,6.606-18.255,6.969-27.953,1.036c-1.68-1.028-4.68,0.097-7.07,0.227
		c0.762,2.456,0.788,6.2,2.418,7.129c5.267,3,11.121,4.962,16.749,7.326c8.247-1.164,14.971-4.068,20.69-8.896
		c1.398-1.181,1.078-4.401,1.547-6.682C169.38,276.335,166.546,275.302,165.162,276.293z"/>
	<path d="M228.89,180.002c-1.109-0.925-2.522-1.487-3.797-2.216c-0.678-0.487-1.355-0.974-2.034-1.459
		c-0.677,1.588-1.997,3.226-1.88,4.753c0.169,2.195,0.767,4.998,2.261,6.342c8.029,7.223,16.222,14.295,24.78,20.868
		c1.742,1.339,5.296,0.32,8.014,0.389c-0.701-2.483-0.616-5.826-2.234-7.302C245.882,193.975,237.338,187.039,228.89,180.002z"/>
	<path d="M272.068,112.631c-9.595-0.538-19.236-0.269-28.861-0.207c-3.348,0.021-6.237,1.288-6.175,5.077
		c0.06,3.623,2.93,4.381,6.062,4.354c4.717-0.04,9.436-0.011,14.152-0.02c4.295,0,8.634,0.344,12.882-0.002
		c0.605-0.049,1.211-0.114,1.813-0.193c2.292-0.307,4.306-2.699,6.446-4.146C276.285,115.796,274.258,112.753,272.068,112.631z"/>
	<path d="M257.246,121.835c-4.717,0.009-9.436-0.02-14.152,0.02c4.717-0.04,9.436-0.011,14.152-0.016
		c4.295-0.004,8.634,0.339,12.882-0.006C265.88,122.179,261.541,121.835,257.246,121.835z"/>
	<path d="M75.345,179.044c-1.078-0.763-3.648-0.9-4.598-0.125c-8.916,7.284-17.7,14.735-26.291,22.401
		c-1.025,0.916-1.229,3.57-0.759,5.09c0.385,1.241,2.349,1.991,3.288,2.71c1.458-0.35,2.376-0.3,2.887-0.734
		c8.768-7.429,17.501-14.895,26.172-22.435c0.621-0.541,1.083-1.768,0.949-2.563C76.733,181.845,76.411,179.796,75.345,179.044z"/>
	<path d="M57.769,121.556c1.883-0.217,3.582-2.823,5.315-4.339c-1.689-1.588-3.277-4.479-5.028-4.552
		c-10.005-0.415-20.023-0.366-30.026,0.092c-1.529,0.069-3.988,3.057-4.033,4.749c-0.038,1.398,2.549,3.884,4.31,4.12
		c4.46,0.596,9.414,0.198,13.414,0.198c0-0.019,0-0.039,0-0.058C47.72,121.765,52.542,122.157,57.769,121.556z"/>
	<path d="M213.001,69.019c2.103-1.202,4.03-2.003,5.598-3.257c4.123-3.298,8.102-6.778,12.111-10.215
		c3.005-2.576,6.357-4.89,8.78-7.936c1.144-1.438,1.044-4.525,0.357-6.456c-0.3-0.84-4.261-1.59-5.251-0.781
		c-8.309,6.796-16.382,13.889-24.318,21.121c-0.909,0.829-1.034,3.216-0.607,4.597C210.024,67.237,211.728,67.966,213.001,69.019z"
		/>
	<path d="M80.524,65.957c2.617,2.205,5.827,3.919,8.428,0.864c2.521-2.963,0.001-5.576-2.363-7.638
		c-6.393-5.577-12.797-11.143-19.24-16.66c-1.095-0.937-2.412-1.613-4.123-2.734c-1.533,1.316-3.965,2.467-3.953,3.589
		c0.027,2.175,0.836,4.973,2.363,6.388C67.713,55.4,74.182,60.613,80.524,65.957z"/>
	<path d="M150.7,42.325c1.907-0.378,4.214-3.567,4.597-5.786c0.183-1.058,0.287-2.128,0.342-3.208
		c0.162-3.238-0.131-6.555-0.134-9.822c0-3.408,0.296-6.867,0.127-10.247c-0.058-1.126-0.165-2.244-0.354-3.348
		c-0.368-2.158-3.124-3.909-4.799-5.844c-1.353,1.935-3.777,3.818-3.874,5.812c-0.426,8.88-0.194,17.791-0.183,26.691
		C146.428,39.6,146.983,43.061,150.7,42.325z"/>
	<path d="M155.505,23.509c0.003,3.267,0.296,6.583,0.134,9.822c0.162-3.238-0.13-6.555-0.132-9.822
		c-0.001-3.408,0.294-6.867,0.125-10.247C155.801,16.642,155.505,20.102,155.505,23.509z"/>
</g>
<rect x="-649.12" y="217.741" fill="none" width="251.852" height="59.259"/>
<text transform="matrix(1 0 0 1 -649.1196 226.2607)"><tspan x="0" y="0" font-family="'MyriadPro-Regular'" font-size="12">Create: http://icons.iconarchive.com/icons/pixel</tspan><tspan x="239.178" y="0" font-family="'MyriadPro-Regular'" font-size="12">-</tspan><tspan x="0" y="14.4" font-family="'MyriadPro-Regular'" font-size="12">kit/swanky-outlines/256/15-Light-Bulb-icon.png</tspan></text>
</svg>
