<?xml version="1.0" encoding="utf-8"?>
<!-- Generator: Adobe Illustrator 16.0.4, SVG Export Plug-In . SVG Version: 6.00 Build 0)  -->
<!DOCTYPE svg PUBLIC "-//W3C//DTD SVG 1.1//EN" "http://www.w3.org/Graphics/SVG/1.1/DTD/svg11.dtd">
<svg version="1.1" id="Layer_1" xmlns="http://www.w3.org/2000/svg" xmlns:xlink="http://www.w3.org/1999/xlink" x="0px" y="0px"
	 width="300px" height="300px" viewBox="0 0 300 300" enable-background="new 0 0 300 300" xml:space="preserve">
<g>
	<path fill="none" d="M41.514,283.706c6.51-1.823,13.086-3.622,19.558-5.4c-2.458-21.545-23.381-41.408-44.414-42.58
		c0,0-0.124-0.001-0.131-0.001c-0.001,0.003-0.003,0.006-0.004,0.009c21.198,1.222,41.983,21.057,44.438,42.572
		c-6.473,1.778-12.993,3.577-19.503,5.4c-6.709,1.879-13.396,4.049-20.094,5.754c5.056-1.287,10.139-2.838,15.212-4.33
		C38.222,284.645,39.868,284.167,41.514,283.706z"/>
	<path fill="none" d="M282.911,31.899c-7.071-6.759-14.086-13.553-21.186-20.305c-4.149-3.946-9.763-6.055-15.315-6.062
		c5.541,0.01,11.139,2.119,15.286,6.062C268.796,18.346,275.83,25.14,282.911,31.899z"/>
	<path fill="none" d="M234.286,9.449c-5.09,3.834-9.466,8.646-13.438,12.354c14.637,15.025,29.094,29.889,43.611,44.804
		c-14.509-14.915-28.944-29.779-43.581-44.804C224.851,18.095,229.196,13.284,234.286,9.449z"/>
	<path fill="none" d="M15.962,237.026c-0.108,0.248-0.211,0.499-0.281,0.754c-1.914,6.913-3.806,13.842-5.768,20.739
		c1.962-6.897,3.894-13.827,5.807-20.739C15.791,237.525,15.875,237.274,15.962,237.026z"/>
	<path fill="none" d="M277.437,79.935c0.001,0.001,0.002,0.002,0.003,0.002c6.493-7.406,14.942-12.479,18.049-22.096
		C292.382,67.457,283.929,72.531,277.437,79.935z"/>
	<path fill="#FFFFFF" d="M21.364,290c0.009,0,0.018,0,0.027,0c5.056-2,10.12-2.839,15.185-4.331
		C31.503,287.161,26.42,288,21.364,290z"/>
	<path fill="#FFFFFF" d="M16.435,235.726c-0.007,0-0.013-0.001-0.02-0.001c-0.23,0.657-0.538,1.344-0.734,2.056
		c0.07-0.255,0.173-0.506,0.281-0.754C16.117,236.582,16.286,236.147,16.435,235.726z"/>
	<path d="M289.163,37.872c-2.101-1.986-4.179-3.978-6.266-5.973c-7.081-6.759-14.109-13.553-21.209-20.305
		c-4.146-3.943-9.741-6.052-15.282-6.062c-4.045-0.005-8.056,1.105-11.45,3.435c-0.227,0.155-0.448,0.316-0.67,0.482
		c-5.092,3.834-9.436,8.646-13.408,12.354c14.637,15.025,29.071,29.889,43.58,44.804c4.318,4.437,8.642,8.876,12.979,13.328
		c6.492-7.404,14.919-12.478,18.025-22.093c0.101-0.311,0.258-0.625,0.258-0.945c0-2.463,0-4.927,0-7.39
		C293.72,45.195,292.585,41.105,289.163,37.872z"/>
	<path d="M289.194,37.872c-2.102-1.986-4.193-3.978-6.283-5.973c2.087,1.995,4.178,3.987,6.278,5.973
		c3.421,3.234,5.445,7.323,6.582,11.635C294.635,45.195,292.615,41.105,289.194,37.872z"/>
	<path d="M234.958,8.967c3.394-2.33,7.406-3.44,11.452-3.435C242.368,5.525,238.354,6.636,234.958,8.967z"/>
	<path d="M234.286,9.449c0.222-0.166,0.445-0.327,0.672-0.482C234.731,9.123,234.507,9.284,234.286,9.449z"/>
	<path d="M277.435,79.938c0,0,0.002-0.001,0.002-0.002c-4.337-4.452-8.659-8.891-12.978-13.328
		C268.775,71.045,273.097,75.485,277.435,79.938z"/>
	<path d="M60.961,278.306c-2.455-21.515-23.24-41.351-44.438-42.572c-0.147,0.419-0.368,0.851-0.561,1.293
		c-0.087,0.248-0.171,0.499-0.242,0.754c-1.913,6.913-3.845,13.842-5.807,20.739c-1.64,5.763-3.488,11.491-5.193,17.234
		c0,1.517,0,3.032,0,4.548C6.425,284.285,9.307,288,13.406,290c2.652,0,5.305,0,7.958,0c6.698-2,13.385-4.146,20.094-6.024
		C47.968,282.152,54.488,280.084,60.961,278.306z"/>
	<path d="M16.522,235.733c-0.029-0.002-0.059-0.006-0.088-0.007c-0.148,0.421-0.317,0.856-0.473,1.3
		C16.154,236.584,16.375,236.153,16.522,235.733z"/>
	<path d="M61.103,278.306c-6.473,1.778-13.063,3.577-19.573,5.4c-1.646,0.461-3.299,0.939-4.945,1.424
		c1.648-0.485,3.292-0.963,4.938-1.424c6.51-1.823,13.119-3.622,19.593-5.4c-2.46-21.552-23.396-41.421-44.396-42.581
		c0,0,0,0.001,0,0.001C37.72,236.897,58.645,256.76,61.103,278.306z"/>
	<path d="M61.082,278.306c-6.473,1.778-13.054,3.577-19.563,5.4c-1.646,0.461-3.294,0.939-4.942,1.424
		c-5.064,1.492-10.129,3.043-15.185,4.33c6.699-1.706,13.433-3.875,20.141-5.754C48.042,281.882,54.609,280.084,61.082,278.306z"/>
	<path d="M66.966,243.364c-0.699,0.689-1.809,1.848-1.617,2.412c1.392,4.112-0.364,7.8-1.096,11.662
		c-0.702,3.708-0.486,7.405,2.388,10.367c4.164,4.292,14.167,4.41,18.401,0.257c54.763-53.718,109.532-107.428,164.279-161.161
		c3.634-3.566,7.098-7.303,10.415-10.727c-6.929-7.058-13.932-14.19-21.019-21.407c-0.655,0.613-1.282,1.177-1.885,1.768
		c-36.425,35.762-72.848,71.526-109.271,107.291C107.358,203.667,87.149,223.503,66.966,243.364z"/>
	<path d="M200.548,41.45C142.9,98.029,85.253,154.61,27.609,211.193c-3.438,3.375-3.939,6.115-1.694,10.462
		c3.379,6.54,9.118,9.622,16.188,9.547c2.48-0.026,5.378,0.233,7.827-2.177c56.873-56.014,113.854-111.921,170.844-167.818
		c0.724-0.709,1.813-1.042,2.429-1.381c-7.143-7.377-13.521-13.965-20.111-20.772C202.053,40.031,201.286,40.726,200.548,41.45z"/>
</g>
<rect x="-698.502" y="158.481" fill="none" width="300" height="281.481"/>
<text transform="matrix(1 0 0 1 -698.5024 167.0015)"><tspan x="0" y="0" font-family="'MyriadPro-Regular'" font-size="12">Draw: https://cdn3.iconfinder.com/data/icons/mean</tspan><tspan x="263.538" y="0" font-family="'MyriadPro-Regular'" font-size="12">-</tspan><tspan x="0" y="14.4" font-family="'MyriadPro-Regular'" font-size="12">cons-base/512/meanicons_76-512.png </tspan></text>
<g id="AgDq8Y_1_">
	
		<image overflow="visible" width="256" height="256" id="AgDq8Y_2_" xlink:href="F62D11E5598096B0.png"  transform="matrix(1 0 0 1 -578.3667 316.1123)">
	</image>
</g>
<rect x="-649.12" y="217.741" fill="none" width="251.852" height="59.259"/>
<text transform="matrix(1 0 0 1 -649.1196 226.2607)"><tspan x="0" y="0" font-family="'MyriadPro-Regular'" font-size="12">Create: http://icons.iconarchive.com/icons/pixel</tspan><tspan x="239.178" y="0" font-family="'MyriadPro-Regular'" font-size="12">-</tspan><tspan x="0" y="14.4" font-family="'MyriadPro-Regular'" font-size="12">kit/swanky-outlines/256/15-Light-Bulb-icon.png</tspan></text>
</svg>
