<?xml version="1.0" encoding="utf-8"?>
<!-- Generator: Adobe Illustrator 16.0.4, SVG Export Plug-In . SVG Version: 6.00 Build 0)  -->
<!DOCTYPE svg PUBLIC "-//W3C//DTD SVG 1.1//EN" "http://www.w3.org/Graphics/SVG/1.1/DTD/svg11.dtd">
<svg version="1.1" xmlns="http://www.w3.org/2000/svg" xmlns:xlink="http://www.w3.org/1999/xlink" x="0px" y="0px"
	 width="56.693px" height="56.693px" viewBox="0 0 56.693 56.693" enable-background="new 0 0 56.693 56.693" xml:space="preserve">
<g id="Layer_1">
</g>
<g id="Layer_2">
	<path fill-rule="evenodd" clip-rule="evenodd" fill="#181616" d="M28.865,3.718c-14.106,0-25.546,11.437-25.546,25.55
		c0,11.283,7.32,20.857,17.471,24.236c1.277,0.236,1.746-0.555,1.746-1.232c0-0.605-0.024-2.209-0.036-4.344
		c-7.105,1.545-8.604-3.424-8.604-3.424c-1.162-2.951-2.835-3.736-2.835-3.736c-2.32-1.586,0.174-1.553,0.174-1.553
		c2.564,0.18,3.914,2.631,3.914,2.631c2.279,3.904,5.979,2.777,7.436,2.123c0.231-1.652,0.891-2.775,1.62-3.416
		c-5.673-0.643-11.636-2.836-11.636-12.626c0-2.785,0.995-5.068,2.631-6.854c-0.263-0.646-1.14-3.244,0.25-6.761
		c0,0,2.145-0.686,7.024,2.619c2.037-0.567,4.224-0.85,6.395-0.861c2.169,0.011,4.356,0.294,6.396,0.861
		c4.876-3.305,7.017-2.619,7.017-2.619c1.394,3.517,0.518,6.114,0.255,6.761c1.639,1.785,2.626,4.068,2.626,6.854
		c0,9.814-5.973,11.974-11.664,12.609c0.918,0.787,1.735,2.346,1.735,4.729c0,3.414-0.032,6.172-0.032,7.008
		c0,0.684,0.461,1.48,1.758,1.229c10.141-3.383,17.455-12.953,17.455-24.232C54.413,15.155,42.972,3.718,28.865,3.718z"/>
</g>
</svg>
