<?xml version="1.0" encoding="utf-8"?>
<!-- Generator: Adobe Illustrator 16.0.4, SVG Export Plug-In . SVG Version: 6.00 Build 0)  -->
<!DOCTYPE svg PUBLIC "-//W3C//DTD SVG 1.1//EN" "http://www.w3.org/Graphics/SVG/1.1/DTD/svg11.dtd">
<svg version="1.1" xmlns="http://www.w3.org/2000/svg" xmlns:xlink="http://www.w3.org/1999/xlink" x="0px" y="0px" width="480px"
	 height="471px" viewBox="0 0 480 471" enable-background="new 0 0 480 471" xml:space="preserve">
<g id="Layer_1" display="none">
	
		<image display="inline" overflow="visible" width="2480" height="3508" xlink:href="Scan.jpeg"  transform="matrix(-0.24 0 0 -0.24 -117.7998 -17.0801)">
	</image>
</g>
<g id="Layer_2">
	<path d="M-239-535.5c-12.113-40.376-66.5,9.75-61.5,47.5c1.5,10.75-21.75,26.25-16-6c29.75-82-30.75-52.5-33-43.25l1-8.5l-6.75,1
		c4.75,47.5-43.5,137.25-6.5-0.5l-7.75,0.25c0,0-5.335,43.202-9.5,54.75c-11,30.5-37.5,30.5-6.75-55c-6,4.5-22,11.75-31.75,3
		c-10.5,89-59.75,93.5-49.5,28c14-0.25,39.75-21.75,23-34.5c-13.476-10.257-34.25,24-28.5,67.5c0.561,4.242-23.5,15-25.75-14.5
		C-499.752-515.449-473.5-582-474.5-578s13.75-49.5,29-74.5l-14.5,13.25c-1.25,4-17.25,55-20,60.5s-25.25,66-24.333,83.751
		c1.337,25.889-21.527,30.321-24.333,8.333c-3.999-31.333,19.333-93.333,20-95.333s11-35.667,16.667-63.667l-3.667,7
		c-0.333,2.667-12.472,44.333-16.667,56.667c-8.333,24.499-25.998,64-19.917,96.749c-8.273,31.912-43,20-30.75-29.75
		c12,1.25,37.75-20,21.25-32c-25.25-12.75-38.5,44.5-27.25,69c-6,2.5-17.25,9-42-14.5c-1.696-1.611-3.335-2.932-4.915-4.012
		c5.87-14.034,10.525-35.594,13.79-55.488c0.166-1.008,0.333-2.008,0.501-3.004c37.441-9.589,41.438-49.481,20.458-47.829
		c-13.703,0.765-20.939,22.392-26.175,47.053c-6.359,0.703-13.63,0.489-21.908-0.97c-10.946-1.326-24.25,4.75-22,20
		c2.75,12.753,8.074,13.319,12.333,11.75c9.5-3.5,5-14.167-2.083-9.875l0.625,1.25c5.458-3.458,8.104,5.538,0.625,7.375
		c-4.75,1.167-8.75-0.917-9.75-10.875c0-2.75-3.25-18.875,19.875-17.375c2.956-0.105,12.44,1.979,21.854,0.772
		c-4.119,19.932-7.029,41.491-11.038,55.465c-19.425-10.119-27.683,18.346-9.691,17.013c4.384-0.457,8.372-5.698,11.93-13.736
		c1.384,0.966,2.825,2.117,4.32,3.486c4.5,4,21.083,26.167,44.25,15.25c12.25,20.75,34.25,11.75,36.5-6.25c4,14.75,23,19.25,29.75-3
		c-0.25,7,21,19.75,30,5.75c8.787,18.671,40.5,31.25,54.5-56.25c0.5,1.75,17.25,9.25,21,6c-24.5,71,8.25,72,17.5,44.75
		c-4.412,26.474,20.75,22.5,28.5-49c18.5-23.5,48.25-17.75,26,39.5c-9.5,29.5,18.5,36.75,24.5,11.75
		c7.998,24.883,31.25,27.25,51.75-11C-245.822-498.063-236.75-528-239-535.5z M-445.833-547.666
		c8.686,3.958,6.833,25.333-20.833,32.166C-466.667-515.5-459-553.666-445.833-547.666z M-542.833-545.667
		c8.667,4,0.167,29.667-19.833,28.833C-562.667-516.833-554.329-550.972-542.833-545.667z M-580.75-601.25
		c16.337-4.236,15.663,36.418-20.573,44.483C-597.466-579.109-592.544-597.98-580.75-601.25z M-628.833-483.167
		c-14.601-1.186-7.976-23.199,9.556-13.517C-621.821-488.381-624.82-483.131-628.833-483.167z M-251-492.833
		c-11.834,25.833-44.167,38.166-40.667,0.333c3.798-41.053,42.167-68,51.667-39.667L-251-492.833z"/>
</g>
<g id="Layer_3">
	<path d="M-254-485c-8.5,34.5-26.5,77.5-54.5,90.25c10.833-20.75-11.167-42.25-28-28c-15,17.25,8.5,38.5,24.5,31
		c-11.25,25.75-45.75,24-66.75,5.25c-9.391-7.188-18.868-12.894-28.167-17.313c0.342-0.731,0.616-1.4,0.917-1.937
		c7.333-13.083,27.667-78.833,27.667-80.583l-2.5,1.833c-5.667,21.333-20.898,65.564-27.494,80.013
		C-442.8-420.421-474.604-418.498-490-407c-44,36.75-7,73.25,26.75,61.25c33.708-13.352,48.826-42.225,55.088-55.414
		c13.652,6.706,24.04,13.794,27.412,16.164c43.75,34,67,5.5,71.25-7.25c43.25-19.5,58-89.5,63-107.25L-254-485z M-409.75-401.5
		c-10.75,21.25-22.266,42.816-54,53.75c-38.5,12-63.5-26.5-25.75-58c23.359-17.286,56.223-7.507,79.924,3.896
		C-409.633-401.738-409.695-401.609-409.75-401.5z M-310.166-394.334c-12.5,7.667-40.167-9.333-25-27.833
		C-327.833-431.334-298.499-423.667-310.166-394.334z"/>
</g>
<g id="Layer_4">
	<path d="M-236.812-514.594c-0.291-3.292-0.188-12.573-2.354-20.24s-1.666-2.333-0.666,2.667s1.666,18.5,1.666,19.167
		s-10.415,16.917-10.915,17.75l-5.585,11.917c6.335-10.167,16.188-27.124,17.188-28.291c0.396,3.542,10.23,7.708,11.312-3.042
		C-225.833-518.667-229.281-525.312-236.812-514.594z M-226.792-514c-1.541,8.083-9.583,6.292-10.041,1.375
		C-231.488-522.292-226.062-519.859-226.792-514z"/>
</g>
<g id="Layer_6">
	<path d="M-405.25-316.25c-0.375-18,28.5-2.625,6.916,15.084c-14.416,11.166-31.33-4.168-15.333-33.833
		c7.86-14.577,31.141-49.617,32.502-53.667c13.334-39.668-4.95-79.794-32.333-74.167c-30,6.165-21.494,35.057-7.667,30.5
		c14.667-4.834,7.772-16.558,4.167-20.167l0.834-1.168c6.5,5.499,8.666,19.499-4.5,23.167c-17,3.665-25.334-28.001,6.667-34
		c30.753-4.281,47.166,37.666,34,77.333c-2.536,7.64-30.269,50.32-32.333,53.167c-12.42,16.501-6.562,45.092,13.166,31.667
		C-379.625-317.812-404.75-333-405.25-316.25L-405.25-316.25z"/>
	<path d="M-459.188-442.312c-4-9-20.625-13.125-32.438,10.375c-8.291-7.23-15.542-40.729-10.125-53.562l-3.583,6.667
		c1.333,30.5,9.144,44.131,13.667,49.167C-474-410-452.562-427.438-459.188-442.312z M-490.708-430.999
		c11.021-23.751,27.333-17.938,30.333-11.292C-453.375-425.375-478.25-412.688-490.708-430.999z"/>
	<path d="M-492.25-430.875c-12.5,21.625-9.625,25.625-19.5,39.625c-15.894,22.533-38.5,17.75-43,3
		c-8.351-27.373-17.61-57.354-28.625-72.375c-9.625-13.125-34.5-4.875-21.25,16.25c9.75,14.625,27.578,10.187,31.625,8.375
		c35.75-16,44.24-5.589,47.75,1.5c6.375,12.875-7.527,20.228-11.375,20.75c-23,3.125-20.349-25.812-18.625-34
		c1-4.75,8.125-16.25,12.125-18.5l-3,0.25c0,0-16.861,11.017-11,39.375c3.875,18.75,22.236,16.313,27.875,12.25
		c8.5-6.125,8.831-17.435,3.625-24.375c-12.375-16.5-43.869-0.913-48,0.5c-14.625,5-24.998,1.77-29.875-6.625
		c-13-22.375,9.624-24.381,18.75-14.875c12,12.5,24.19,60.318,28.625,71.75c8.875,22.875,34.875,13.625,45.5-2.125
		c6.583-9.759,12.125-30.375,18.958-39.542C-490.943-430.638-492.25-430.875-492.25-430.875z"/>
	<path d="M-384.75-625.25c7.625-2.375,7.623,14.299-2.625,13.875c-21.125-0.875-17.5-28.25-1.25-30.75
		c11.582-1.782,28.375,6.625,23.375,27.125c-10.026,41.107-80.261,37.705-91.25,38.25c-15.125,0.75-73.425-11.889-86.75-2.875
		c-12.75,8.625,0.5,16.375,4.125,7.125c-1.875,11.25-20,2.5-6-8.125c12.846-9.75,70.125,2.625,88.75,2.375
		c6-0.081,81,2.75,89.375-36.875c1.904-9.011,0-27.25-21.25-25.75c-10.905,0.77-21,26.625,0.625,27.75
		C-379.495-612.702-378.125-626.625-384.75-625.25z"/>
	<path d="M-239.125-533.25c1-2.875,10.755-30.615,22.125-30.125c14.5,0.625,10.57,22.959-1.375,27
		c-25.5,8.625-28.25-27.992-28.25-36.75c0-15.625-1.756-66.099,33.375-76.375c18.375-5.375,35.125,20.5,12.375,30.5
		c-14.484,6.367-23.94-0.203-22.75-22.375c1-18.625,5.796-36.525-0.625-58.375c-8.375-28.5-44.151-36.819-63.75-18.5
		c-30.625,28.625-11.696,83.871,21.25,76.5c36.875-8.25,31.448-47.369,29.25-54.75c-5.25-17.625-27.094-28.776-33.25-31.5
		c-28.25-12.5-54.137,2.799-60.75,13.75c-15.625,25.875-6.997,41.936,6.625,38.125C-307-681.125-314-702.5-325.25-700
		c-7.527,1.673-4.96,10.876,0,8.75c-5.875,4-9.965-6.598-0.375-10.125c10.875-4,22.625,19,1,26.5
		c-11.999,4.161-28.125-11.875-8.125-39.75c10.127-14.115,37.625-27.625,63.625-14.5c7.708,3.891,31.25,19.5,32.875,32.25
		c0.61,4.791,9.25,47.375-30,57.25c-29.15,7.334-58.75-43.125-22.625-79c2.965-2.944,9.875-8.25,22.375-9.875
		c9.264-1.204,36.5,2.5,44.125,28.25c6.447,21.773,1.375,40.375,0.125,58.625c-0.256,3.741-4,30.5,20.5,21.625
		c15.535-5.627,13.375-33.25-11-27.875c-8.822,1.945-33.625,9.625-32.5,74.5c0.08,4.625,2.625,26,10.5,32.625
		c5.513,4.637,13.125,3.625,15.75,2.875c7.379-2.108,18.625-21.5,1.875-23.875c-5.591-0.793-15,10.125-21.5,32L-239.125-533.25z"/>
	<path d="M-337.169-598.499c34-15.5,32.839-32.647,30.834-40.167c-5.666-21.251-29.583-19.668-36.834-14
		c-8.862,6.927-14.499,26.082-0.5,30.667c9.663,3.165,20.813-7.892,13.667-15.5c-5.166-5.5-8.667,2.333-8.667,2.333
		c0.167-3.5,5.001-8.167,10.167-2.833c4.781,4.936,1.018,18.793-15.5,17.5c-5.332-0.417-17.94-14.942,0-33.167
		c6.252-5.751,32.002-10.21,39,14.833c2.342,8.379-2.247,19.832-3.664,21.666c26.083-17.667,41.417-7.083,44.25,0.583
		c4.194,11.351-4.499,22.209-11.833,22.25c-15.084,0.083-10.953-12.263-6.75-14.25c4.583-2.167,9.301,1.193,7.083,4.417
		c1.333-4.75-4.946-4.216-6.667-3.167c-6.833,4.167-2.272,13.371,6.25,12c11.917-1.917,12.579-16.567,10.584-20.5
		c-8.75-17.25-31.56-8.251-42.5,0c-5.083,3.833-22.333,17.333-26.334,17.75L-337.169-598.499z"/>
	<path d="M-393.5-698.833c-9.5,8.332-20.965,28.826-21.166,53.333c-0.167,20.332-6.177,29.099-15.167,30.5
		C-448-612.168-447.25-632.835-441-640.333c5.485-6.581,16.416-2.085,15.167,5.667c-1.1,6.826-9.666,5.333-9.667,0.667
		c0.5,3.166,7.333,5.166,8.167-0.833c0.965-6.943-7.948-10.16-12.667-4.5c-5.417,6.499-6.917,23.247,9.75,22.999
		c14.264-0.213,13.966-26.327,14.25-29.332c1.333-14.085,2.25-34.833,24.5-58.167L-393.5-698.833z"/>
</g>
<g id="Layer_7">
	<path d="M-305.875-464.625c-16.875,2.5-22.375,22-36.75,26.5c0.25-2.75-3.375-22.125-15.5-12.25c-4,3.5-5.375,16.125,14,14.25
		c0.375,5.75-1.25,30.5-36.125,48l-0.625,2.125c7.5-2.625,40.25-21.5,38.25-50.75c13.5-3.5,20.625-23.25,36.75-26.25
		c22.625,0.25,20.375,23.75,9.75,26.75c-13.75,3.5-12.875-11.625-6.875-13.125c5.5-1.25,6,4.625,0.875,5.625l0.625,1.125
		c6.5-1.125,5.75-10-1.75-8.375s-9,19.875,7.5,16C-281.375-438.875-283.125-465.375-305.875-464.625z M-344.312-437.594
		c-10.5,2.562-19.938-4.469-12.562-11.844C-348-457-343.75-438.906-344.312-437.594z"/>
	<path d="M-421-271.834c26.25-24.666,77.75-66.291,54-88.334c-14.833-14.333-37.875,7.918-23,19.667
		c7.162,5.657,15.25-2.249,11.667-8.334l0,0c3.333,9.334-8.021,9.19-10.333,7.167c-13.334-11.667,5.674-30.529,21-17.167
		c13,11.334-5.595,37.094-8.334,40.667c-11.5,15-45,43.833-45,43.833c-15.25-10.04-15-20.54-14-31.29
		c16.75-28.625-13.75-44.625-24.125-42.5l-4.75,2.25c27.5-4.75,39.5,21.25,27.875,38.75c-14.25,19.25-29.875-6-18.5-16.125
		c9.625-8.125,18.875,3.75,9.5,8.25c12.5-5.375-2.125-17.75-10.5-9.5c-12.75,14,4.625,36,18.375,21.375
		C-436.75-295.125-438.375-282.25-421-271.834z"/>
	<path d="M-310.333-516.167c15.167-45.333,46.145-76.973,65-85.833c41.5-19.5,52.372,5.217,38,16.167
		c-24.5,18.667-60.247,8.266-76.833,1.333c-31.5-13.167-46.168-14.246-48.5-14.333c-26.667-1-40.406,14.232-42.667,22.667
		c-4.333,16.167,6.429,14.056,9.5,12.167c6.5-4,2.164-9.666-2.333-8.833c0,0,8.164,2.167,1.667,7.667
		c-2.335,1.977-11.17,0-7.334-10.667c0.911-2.534,8.331-21,40.834-21.667c5.002-0.103,37.664,9.5,48.166,14.5
		c4.426,2.106,44.499,21.834,78.332-1.499c13.814-9.527,10.834-39.5-39-18.833c-15.048,6.24-46,37.167-64.166,79L-310.333-516.167z"
		/>
	<path d="M-331.125-715.875c6.875-16.375-7-18.375-11.625-12.75c-8.295,10.088,2,15.375,5.75,10.875c2.547-3.056,1.375-6,1-6.625
		c1,4.875-3.688,9.562-7.125,6.375c-6.313-5.854,5.5-16.25,10.5-10.375c2.657,3.122,2.75,8.5-4.75,21.5
		C-338.951-704.142-331.125-715.875-331.125-715.875z"/>
	<path d="M-342.125-691.625c-9.208,23.208-32.657,34.283-46.25,22.75c-13.209-11.208-3.542-34.875,1.875-40
		c14.253-13.486,26.308-7.39,29.375,0c5.5,13.25-0.375,17.125-4,20.75c-4.324,4.324-14.458,0.292-11.25-5.5
		c-2.958,3.292,1.875,12.292,11.375,6.5c12.296-7.497,6.234-19.171,4.875-22.25c-6.125-13.875-24.75-9.625-31.125-0.5
		c-2.191,3.137-18.25,22.959-2.125,42.125c1.824,2.169,26.5,17.125,47.5-19.75L-342.125-691.625z"/>
	<path d="M-416.25-640.917c0.75-13.667-22.667-22.917-31.417-7.833l-12.417,9.583c22.5-31.75,43.667-14.583,44-5.667
		L-416.25-640.917z"/>
</g>
<g id="Layer_8">
	<path d="M-457.5-641.25c9.25-27.5,12.045-49.955,3.5-61.375c-13.375-17.875-31.414-4.941-35.25,4.875
		c-8.5,21.75,5.149,30.866,15.125,26.75c14.542-6,11.329-14.508,8.5-18.625c-3.292-4.792-10.875-4.875-10.542,0.792
		c-0.501-5,6.999-4.333,9.292-0.167c1.294,2.352,5.041,11-7.5,16.625c-8.729,3.916-22.626-5.792-13.75-24.75
		c7.499-16.017,25.458-15.792,32.5-4.625c9.505,15.071,3.958,34.5-4.625,63.25L-457.5-641.25z"/>
	<path d="M-524.125-707.125c8.125-3.375,8.914-12.617,3.75-19.625c-5.25-7.125-13.848-7.535-18.625-3.125
		c-1.625,1.5-2,2.625-2,2.625c7.75-8.5,17.375-2.625,19.5,1.25c6.784,12.371-0.125,15.875-3.625,18.375L-524.125-707.125z"/>
	<path d="M-629.75-624.875c-9.75-38.625,2.055-66.276,22.375-75.625c26.625-12.25,34.374,9.667,31.875,17.625
		c-4.75,15.125-17.875,13.875-20.75,7.125c-4.246-9.969,6.5-13.25,7.875-7.875c-4.062-5.562-10.062,1.75-6.75,7
		c6.05,9.588,16.545,1.297,18.625-6.5c3-11.25-10-27.125-30.25-16c-9.711,5.335-31.375,22.875-23.25,67L-629.75-624.875z"/>
	<g>
		<path fill="#FFFFFF" d="M427.5-326c-12.113-40.377-66.5,9.75-61.5,47.5c1.5,10.75-21.75,26.25-16-6c29.75-82-30.75-52.5-33-43.25
			l1-8.5l-6.75,1c-1.416,73.75-30.25,87.415-26.167,60.665l14.913-61.414h-4.5l-12.162,55.665
			c-6.938,29.875-34.646,32.521-2.584-55.416c-6,4.5-22,11.75-31.75,3c-10.5,89-59.75,93.5-49.5,28c14-0.25,39.75-21.75,23-34.5
			c-13.476-10.258-34.25,24-28.5,67.5c0.561,4.242-23.5,15-25.75-14.5c-1.502-19.699,22-86,21-82S203-410,210-434.75l-3.5,5
			c-1.25,4-17.25,55-20,60.5s-25.25,66-24.333,83.751c1.337,25.889-21.526,30.321-24.333,8.333
			c-3.998-31.332,19.333-93.333,20-95.333s11-35.667,16.666-63.667l-3.666,7c-0.333,2.666-12.472,44.334-16.667,56.667
			c-8.333,24.499-25.998,64.001-19.917,96.749c-8.273,31.912-43,20-30.75-29.75c12,1.25,37.75-20,21.25-32
			c-25.25-12.75-38.5,44.5-27.25,69c-6,2.5-17.25,9-42-14.5c-1.696-1.611-3.336-2.932-4.914-4.012
			c5.869-14.034,10.524-35.594,13.789-55.488c0.166-1.008,0.332-2.008,0.501-3.004c37.44-9.59,41.438-49.481,20.458-47.83
			c-13.703,0.766-20.939,22.393-26.176,47.054c-6.359,0.702-13.631,0.489-21.908-0.97c-10.945-1.326-24.25,4.75-22,20
			c2.75,11.084,10.773,10.669,16.083,8.918c9.604-3.168,1.417-16.793-4.396-10.98l0,0c5.457-3.459,11.312,6.375,3.896,9.646
			C26.358-317.692,18-319.499,17-327.625c0-2.75-3.25-18.875,19.875-17.375c2.956-0.105,12.439,1.979,21.854,0.771
			c-4.119,19.932-7.029,41.491-11.037,55.466C28.266-298.882,20.008-270.417,38-271.75c4.385-0.457,8.371-5.698,11.93-13.736
			c1.385,0.967,2.824,2.117,4.32,3.486c4.5,4,21.084,26.167,44.25,15.25C110.75-246,132.75-255,135-273c4,14.75,23,19.25,29.75-3
			c-0.25,7,21,19.75,30,5.75c8.787,18.671,38.916,31.25,55.25-59.083c0.5,1.75,17.833,7.333,24.5,1
			c-27.833,76.833,0.166,79.831,9.416,52.581c-4.412,26.474,24.584,22.502,32.334-48.998c18.5-23.5,48.25-17.75,26,39.5
			c-9.5,29.5,18.5,36.75,24.5,11.75c7.998,24.883,31.25,27.25,51.75-11C420.678-288.562,429.75-318.5,427.5-326z M220.666-338.166
			c8.687,3.959,6.834,25.333-20.832,32.166C199.834-306,207.5-344.166,220.666-338.166z M123.666-336.166
			c8.668,4,0.168,29.666-19.832,28.832C103.834-307.334,112.172-341.472,123.666-336.166z M85.75-391.75
			c16.338-4.236,15.663,36.418-20.573,44.483C69.034-369.609,73.955-388.48,85.75-391.75z M37.666-273.666
			c-14.6-1.187-7.975-23.199,9.557-13.518C44.68-278.881,41.68-273.631,37.666-273.666z M415.5-283.333
			c-11.834,25.833-44.167,38.166-40.667,0.333c3.798-41.053,42.167-68,51.667-39.666L415.5-283.333z"/>
		<path fill="#FFFFFF" d="M412.5-275.5C404-241,386-198,358-185.25c10.833-20.75-11.167-42.25-28-28c-15,17.25,8.5,38.5,24.5,31
			c-11.25,25.75-45.75,24-66.75,5.25c-9.391-7.188-18.868-12.894-28.167-17.313c0.342-0.731,0.616-1.4,0.917-1.937
			c7.333-13.083,23.542-78.271,23.542-80.021l-3.709,8.438c-4.5,21.666-15.564,58.397-22.16,72.846
			c-34.473-15.934-66.276-14.011-81.673-2.513c-44,36.75-7,73.25,26.75,61.25c33.708-13.352,48.826-42.225,55.088-55.414
			c13.652,6.706,24.04,13.794,27.412,16.164c43.75,34,67,5.5,71.25-7.25c43.25-19.5,58-89.5,63-107.25L412.5-275.5z M256.75-192
			c-10.75,21.25-21.01,39.889-54,53.75C168.834-124,135.667-163,177-196.25c23.359-17.286,56.223-7.507,79.924,3.896
			C256.867-192.238,256.805-192.109,256.75-192z M356.334-184.834c-12.5,7.667-40.167-9.333-25-27.833
			C338.667-221.834,368.001-214.167,356.334-184.834z"/>
		<path fill="#FFFFFF" d="M429.688-305.094c-0.291-3.292-0.188-12.573-2.354-20.24c-2.166-7.666-1.666-2.332-0.666,2.668
			s1.666,18.5,1.666,19.166s-10.415,16.916-10.915,17.75l-5.585,11.916c6.335-10.166,16.188-27.123,17.188-28.291
			c0.396,3.542,10.23,7.708,11.312-3.041C440.667-309.166,437.219-315.812,429.688-305.094z M439.708-304.5
			c-1.541,8.084-9.583,6.292-10.041,1.375C435.012-312.792,440.438-310.359,439.708-304.5z"/>
		<path fill="#FFFFFF" d="M261.25-106.75c-0.375-18,28.5-2.625,6.916,15.084c-14.416,11.166-31.33-4.168-15.333-33.833
			c7.86-14.577,31.141-49.617,32.502-53.667c13.334-39.668-4.95-79.794-32.333-74.166c-30,6.164-21.168,34.583-7.418,30.999
			c14.944-3.896,7.523-17.058,3.918-20.667l0,0c8.165,5.334,9.499,19.417-3.666,21.999c-17,3.665-25.334-28.001,6.667-34
			c30.753-4.281,47.166,37.666,34,77.333c-2.536,7.64-30.269,50.32-32.333,53.167c-12.42,16.501-6.562,45.092,13.166,31.667
			C286.875-108.312,261.75-123.5,261.25-106.75L261.25-106.75z"/>
		<path fill="#FFFFFF" d="M207.312-232.812c-4-9-20.625-13.125-32.438,10.375c-8.291-7.23-15.541-40.729-10.125-53.562l-3.584,6.666
			c1.334,30.5,9.145,44.132,13.668,49.167C192.5-200.5,213.938-217.938,207.312-232.812z M175.792-221.499
			c11.021-23.751,27.333-17.938,30.333-11.292C213.125-215.875,188.25-203.188,175.792-221.499z"/>
		<path fill="#FFFFFF" d="M174.25-221.375c-12.5,21.625-9.625,25.625-19.5,39.625c-15.895,22.533-38.5,17.75-43,3
			c-8.352-27.373-17.609-57.354-28.625-72.375c-9.625-13.125-34.5-4.875-21.25,16.25c9.75,14.625,27.578,10.187,31.625,8.375
			c35.75-16,44.24-5.59,47.75,1.5c6.375,12.875-7.527,20.228-11.375,20.75c-23,3.125-20.349-25.812-18.625-34
			c1-4.75,8.125-16.25,12.125-18.5l-3,0.25c0,0-16.861,11.018-11,39.375c3.875,18.75,22.236,16.313,27.875,12.25
			c8.5-6.125,8.83-17.435,3.625-24.375c-12.375-16.5-43.869-0.912-48,0.5c-14.625,5-24.998,1.77-29.875-6.625
			c-13-22.375,9.624-24.381,18.75-14.875c12,12.5,24.189,60.318,28.625,71.75c8.875,22.875,34.875,13.625,45.5-2.125
			c6.584-9.759,12.125-30.375,18.959-39.542C175.557-221.138,174.25-221.375,174.25-221.375z"/>
		<path fill="#FFFFFF" d="M281.75-415.75c7.625-2.375,7.623,14.299-2.625,13.875c-21.125-0.875-17.5-28.25-1.25-30.75
			c11.582-1.781,28.375,6.625,23.375,27.125c-10.026,41.107-80.261,37.705-91.25,38.25c-15.125,0.75-73.425-11.889-86.75-2.875
			c-12.75,8.625,0.5,16.375,4.125,7.125c-1.875,11.25-20,2.5-6-8.125c12.846-9.75,70.125,2.625,88.75,2.375
			c6-0.08,81,2.75,89.375-36.875c1.904-9.011,0-27.25-21.25-25.75c-10.905,0.77-21,26.625,0.625,27.75
			C287.005-403.202,288.375-417.125,281.75-415.75z"/>
		<path fill="#FFFFFF" d="M427.375-323.75c1-2.875,10.755-30.615,22.125-30.125c14.5,0.625,10.57,22.959-1.375,27
			c-25.5,8.625-28.25-27.992-28.25-36.75c0-15.625-1.904-66.621,33.375-76.375c21.25-5.875,35.125,20.5,12.375,30.5
			c-14.484,6.367-23.94-0.203-22.75-22.375c1-18.625,5.796-36.525-0.625-58.375c-8.375-28.5-44.151-36.819-63.75-18.5
			c-30.625,28.625-11.696,83.871,21.25,76.5c36.875-8.25,31.448-47.369,29.25-54.75c-5.25-17.625-27.094-28.776-33.25-31.5
			c-28.25-12.5-54.137,2.799-60.75,13.75c-15.625,25.875-6.997,41.936,6.625,38.125c17.875-5,10.875-26.375-0.375-23.875
			c-7.527,1.673-4.96,10.876,0,8.75c-5.875,4-9.965-6.598-0.375-10.125c10.875-4,22.625,19,1,26.5
			c-11.999,4.161-28.125-11.875-8.125-39.75c10.127-14.115,37.625-27.625,63.625-14.5c7.708,3.891,31.25,19.5,32.875,32.25
			c0.61,4.791,9.25,47.375-30,57.25c-29.15,7.334-58.75-43.125-22.625-79c2.965-2.944,9.875-8.25,22.375-9.875
			c9.264-1.204,36.5,2.5,44.125,28.25c6.447,21.773,1.375,40.375,0.125,58.625c-0.256,3.741-2.75,30.625,20.5,21.625
			c17.511-6.778,13.375-33.25-11-27.875c-8.822,1.945-33.625,9.625-32.5,74.5c0.08,4.625,2.625,26,10.5,32.625
			c5.513,4.637,13.125,3.625,15.75,2.875c7.379-2.108,18.625-21.5,1.875-23.875c-5.591-0.793-15,10.125-21.5,32L427.375-323.75z"/>
		<path fill="#FFFFFF" d="M329.331-388.998c34-15.5,32.839-32.648,30.834-40.167c-5.666-21.251-29.583-19.668-36.834-14
			c-8.862,6.927-14.499,26.082-0.5,30.667c9.663,3.164,20.813-7.893,13.667-15.5c-5.166-5.5-8.667,2.333-8.667,2.333
			c0.167-3.5,5.001-8.167,10.167-2.833c4.781,4.936,1.018,18.793-15.5,17.5c-5.332-0.418-17.94-14.943,0-33.167
			c6.252-5.751,32.002-10.21,39,14.833c2.342,8.379-2.247,19.832-3.664,21.666c26.083-17.667,41.417-7.084,44.25,0.583
			c4.194,11.351-4.633,20.854-11.833,22.25c-13.751,2.666-12.648-11.098-6.584-13.75c3.739-1.636,7.239,0.146,5.708,4.458
			c1.406-4.188-3.062-5.312-5.458-3.708c-6.649,4.454-3.584,14.083,6.25,12c11.809-2.501,12.579-16.567,10.584-20.5
			c-8.75-17.249-31.56-8.251-42.5,0c-5.083,3.833-22.333,17.333-26.334,17.75L329.331-388.998z"/>
		<path fill="#FFFFFF" d="M273-489.333c-9.5,8.332-20.965,28.826-21.166,53.333c-0.167,20.332-6.178,29.098-15.167,30.5
			c-18.167,2.832-17.417-17.835-11.167-25.334c5.486-6.58,16.416-2.084,15.167,5.667c-1.101,6.825-9.665,5.333-9.667,0.667
			c0.5,3.165,7.334,5.165,8.167-0.834c0.965-6.942-7.948-10.16-12.667-4.5c-5.416,6.499-6.917,23.248,9.75,22.999
			c14.264-0.213,13.967-26.327,14.25-29.332c1.333-14.085,2.25-34.833,24.5-58.167L273-489.333z"/>
		<path fill="#FFFFFF" d="M360.625-255.125c-16.875,2.5-22.375,22-36.75,26.5c0.25-2.75-3.375-22.125-15.5-12.25
			c-4,3.5-5.375,16.125,14,14.25c0.375,5.75-1.25,30.5-36.125,48l-0.625,2.125c7.5-2.625,40.25-21.5,38.25-50.75
			c13.5-3.5,20.625-23.25,36.75-26.25c22.625,0.25,20.375,23.75,9.75,26.75c-13.75,3.5-12.875-11.625-6.875-13.125
			c5.5-1.25,6,4.625,0.875,5.625l0.625,1.125c6.5-1.125,5.75-10-1.75-8.375s-9,19.875,7.5,16
			C385.125-229.375,383.375-255.875,360.625-255.125z M322.188-228.094c-10.5,2.562-19.938-4.469-12.562-11.844
			C318.5-247.5,322.75-229.406,322.188-228.094z"/>
		<path fill="#FFFFFF" d="M245.5-62.334c26.25-24.666,77.75-66.291,54-88.334c-14.833-14.333-37.875,7.918-23,19.667
			c7.162,5.657,15.25-2.249,11.667-8.334l0,0c3.333,9.334-8.021,9.19-10.333,7.167c-13.334-11.667,5.674-30.529,21-17.167
			c13,11.334-5.595,37.094-8.334,40.667c-11.5,15-45,43.833-45,43.833c-15.25-10.04-15-20.54-14-31.29
			c16.75-28.625-13.75-44.625-24.125-42.5l-4.75,2.25c27.5-4.75,39.5,21.25,27.875,38.75c-14.25,19.25-29.875-6-18.5-16.125
			c9.625-8.125,18.875,3.75,9.5,8.25c12.5-5.375-2.125-17.75-10.5-9.5c-12.75,14,4.625,36,18.375,21.375
			C229.75-85.625,228.125-72.75,245.5-62.334z"/>
		<path fill="#FFFFFF" d="M356.167-306.666c15.167-45.334,46.145-76.974,65-85.834c41.5-19.499,52.372,5.217,38,16.168
			c-24.5,18.666-60.247,8.266-76.833,1.332c-31.5-13.166-46.168-14.245-48.5-14.332c-26.667-1-40.406,14.231-42.667,22.666
			c-4.333,16.167,6.429,14.057,9.5,12.166c6.5-3.999,2.164-9.666-2.333-8.832c0,0,8.164,2.166,1.667,7.666
			c-2.335,1.977-11.17,0-7.334-10.666c0.911-2.534,8.331-21,40.834-21.667c5.002-0.103,37.664,9.501,48.166,14.499
			c4.426,2.107,44.499,21.835,78.332-1.498c13.814-9.527,10.834-39.5-39-18.834c-15.048,6.24-46,37.167-64.166,79L356.167-306.666z"
			/>
		<path fill="#FFFFFF" d="M335.375-506.375c6.875-16.375-7-18.375-11.625-12.75c-8.295,10.088,2,15.375,5.75,10.875
			c2.547-3.056,1.375-6,1-6.625c1,4.875-3.688,9.562-7.125,6.375c-6.313-5.854,5.5-16.25,10.5-10.375
			c2.657,3.122,2.75,8.5-4.75,21.5C327.549-494.642,335.375-506.375,335.375-506.375z"/>
		<path fill="#FFFFFF" d="M324.375-482.125c-9.208,23.208-32.657,34.283-46.25,22.75c-13.209-11.208-3.542-34.875,1.875-40
			c14.253-13.486,26.308-7.39,29.375,0c5.5,13.25-0.375,17.125-4,20.75c-4.324,4.324-14.458,0.292-11.25-5.5
			c-2.958,3.292,1.875,12.292,11.375,6.5c12.296-7.497,6.234-19.171,4.875-22.25c-6.125-13.875-24.75-9.625-31.125-0.5
			c-2.191,3.137-18.25,22.959-2.125,42.125c1.824,2.169,26.5,17.125,47.5-19.75L324.375-482.125z"/>
		<path fill="#FFFFFF" d="M250.25-431.416C247-452,221.5-452.75,208-428.75l-1.583-0.917c22.5-31.75,43.667-14.583,44-5.667
			L250.25-431.416z"/>
		<path fill="#FFFFFF" d="M209-431.75c9.25-27.5,12.045-49.955,3.5-61.375c-13.375-17.875-31.414-4.941-35.25,4.875
			c-8.5,21.75,5.149,30.866,15.125,26.75c14.542-6,11.329-14.508,8.5-18.625c-3.293-4.792-10.875-4.875-10.541,0.792
			c-0.502-5,6.998-4.333,9.291-0.167c1.294,2.352,5.041,11-7.5,16.625c-8.729,3.916-22.626-5.792-13.75-24.75
			c7.499-16.017,25.457-15.792,32.5-4.625c9.505,15.071,3.957,34.5-4.625,63.25L209-431.75z"/>
		<path fill="#FFFFFF" d="M142.375-497.625c8.125-3.375,8.914-12.617,3.75-19.625c-5.25-7.125-13.848-7.535-18.625-3.125
			c-1.625,1.5-2,2.625-2,2.625c7.75-8.5,17.375-2.625,19.5,1.25c6.784,12.371-0.125,15.875-3.625,18.375L142.375-497.625z"/>
		<path fill="#FFFFFF" d="M36.75-415.375C27-454,38.805-481.651,59.125-491C85.75-503.25,93.499-481.333,91-473.375
			c-4.75,15.125-17.875,13.875-20.75,7.125c-4.246-9.969,6.5-13.25,7.875-7.875c-4.062-5.562-10.062,1.75-6.75,7
			c6.05,9.588,16.545,1.297,18.625-6.5c3-11.25-10-27.125-30.25-16c-9.711,5.335-31.375,22.875-23.25,67L36.75-415.375z"/>
		<path fill="#FFFFFF" d="M213.5-491.25c-10.25-22.5-38.148-38.407-58-39.375c-20.5-1-40.377,14.497-31.375,24.625
			c4,4.5,10.303,1.614,9.5-2c-0.5,3.625-4.346,4.964-8.375,1.25c-6.375-5.875,3.875-22.875,30.125-22.5
			c10.631,0.152,34.75,6.5,51.875,31.25L213.5-491.25z"/>
		<path fill="#FFFFFF" d="M34.334-346.5c-54.667-21-28.498-88.447-1.5-93.666c44.833-8.668,39.609,33.138,23.166,36.832
			c-23,5.168-22.387-24.803-16.332-38.832c13.666-31.666,53.01-52.273,66.332-56.666c31.334-10.332,60.073,11.375,67.166,25.333
			c15.502,30.501-7.007,51.89-16.666,59.667C136.834-398,107.117-398.389,97-418.166c-14.666-28.667,4.56-49.531,15.333-51.833
			c21.835-4.666,28.296,17.058,22.333,24.667c-4.832,6.168-11.616,5.611-13,0.666c1.668,4,7.501,4.166,12.002-0.998
			c4.502-5.167,2.484-26.721-20.501-23.002c-11.333,1.833-28.167,25.5-15.166,49.835c4.696,8.79,23.333,26.331,57.833,3.833
			c8.1-5.281,32.167-29.002,16.167-57.667c-5.562-9.963-27.167-35.168-65.833-25c-8.602,2.262-52.834,23.832-66.167,57.833
			c-3.188,8.128-8.667,40.499,15.833,35c16.668-3.741,15.5-35.501-12.333-35c-4.499,0.081-27.167,1.165-36.499,29.165
			c-4.34,13.021-7.5,51.668,31.332,64L34.334-346.5z"/>
	</g>
	<g>
		<path fill="#2C2C2C" d="M428.5,205.5c-16.5-34.25-66.75,12.25-61.625,45.375c2.657,17.177-25.125,31.625-19.375-0.625
			c29.75-82-27.25-55.75-29.5-46.5l1-8.5l-6.75,1c-1.416,73.75-30.25,87.415-26.167,60.665l14.913-61.414h-4.5l-12.162,55.665
			c-6.938,29.875-34.646,32.521-2.584-55.416c-6,4.5-22,11.75-31.75,3c-10.5,89-59.75,93.5-49.5,28c14-0.25,39.75-21.75,23-34.5
			c-13.476-10.258-34.25,24-28.5,67.5c0.561,4.242-23.5,15-25.75-14.5c-1.502-19.699,22-86,21-82S204,121.5,211,96.75l-3.5,5
			c-1.25,4-17.25,55-20,60.5s-25.25,66-24.333,83.751c1.337,25.889-21.526,30.321-24.333,8.333
			c-3.998-31.332,19.333-93.333,20-95.333s11-35.667,16.666-63.667l-3.666,7c-0.333,2.666-12.472,44.334-16.667,56.667
			c-8.333,24.499-25.998,64.001-19.917,96.749c-8.273,31.912-43,20-30.75-29.75c12,1.25,37.75-20,21.25-32
			c-25.25-12.75-38.5,44.5-27.25,69c-6,2.5-17.25,9-42-14.5c-1.696-1.611-3.336-2.932-4.914-4.012
			C57.455,230.454,62.11,208.895,65.375,189c0.166-1.008,0.332-2.008,0.501-3.004c37.44-9.59,41.438-49.481,20.458-47.83
			c-13.703,0.766-20.939,22.393-26.176,47.054c-6.359,0.702-13.631,0.489-21.908-0.97c-10.945-1.326-24.25,4.75-22,20
			c2.75,11.084,10.773,10.669,16.083,8.918c9.604-3.168,1.417-16.793-4.396-10.98l0,0c5.457-3.459,11.312,6.375,3.896,9.646
			C27.358,213.808,19,212.001,18,203.875c0-2.75-3.25-18.875,19.875-17.375c2.956-0.105,12.439,1.979,21.854,0.771
			c-4.119,19.932-7.029,41.491-11.037,55.466C29.266,232.618,21.008,261.083,39,259.75c4.385-0.457,8.371-5.698,11.93-13.736
			c1.385,0.967,2.824,2.117,4.32,3.486c4.5,4,21.084,26.167,44.25,15.25c12.25,20.75,34.25,11.75,36.5-6.25
			c4,14.75,23,19.25,29.75-3c-0.25,7,21,19.75,30,5.75c8.787,18.671,38.916,31.25,55.25-59.083c0.5,1.75,17.833,7.333,24.5,1
			c-27.833,76.833,0.166,79.831,9.416,52.581c-4.412,26.474,24.584,22.502,32.334-48.998c18.5-23.5,48.25-17.75,26,39.5
			c-9,23.25,18.5,36.75,24.5,11.75c7.998,24.883,31.25,27.25,51.75-11C421.678,242.938,431.898,212.555,428.5,205.5z
			 M221.666,193.334c8.687,3.959,6.834,25.333-20.832,32.166C200.834,225.5,208.5,187.334,221.666,193.334z M124.666,195.334
			c8.668,4,0.168,29.666-19.832,28.832C104.834,224.166,113.172,190.028,124.666,195.334z M86.75,139.75
			c16.338-4.236,15.663,36.418-20.573,44.483C70.034,161.891,74.955,143.02,86.75,139.75z M38.666,257.834
			c-14.6-1.187-7.975-23.199,9.557-13.518C45.68,252.619,42.68,257.869,38.666,257.834z M416.5,248.167
			C404.666,274,370,285.833,373.5,248c3.798-41.053,44.5-67.5,54-39.166L416.5,248.167z"/>
		<path fill="#2C2C2C" d="M413.5,256c-8.5,34.5-26.5,77.5-54.5,90.25c10.833-20.75-11.167-42.25-28-28c-15,17.25,8.5,38.5,24.5,31
			c-11.25,25.75-45.75,24-66.75,5.25c-9.391-7.188-18.868-12.894-28.167-17.313c0.342-0.731,0.616-1.4,0.917-1.937
			c7.333-13.083,23.542-78.271,23.542-80.021l-3.709,8.438c-4.5,21.666-15.564,58.397-22.16,72.846
			C224.7,320.579,192.896,322.502,177.5,334c-44,36.75-7,73.25,26.75,61.25c33.708-13.352,48.826-42.225,55.088-55.414
			c13.652,6.706,24.04,13.794,27.412,16.164c43.75,34,67,5.5,71.25-7.25c43.25-19.5,58-89.5,63-107.25L413.5,256z M257.75,339.5
			c-10.75,21.25-21.01,39.889-54,53.75c-33.916,14.25-67.083-24.75-25.75-58c23.359-17.286,56.223-7.507,79.924,3.896
			C257.867,339.262,257.805,339.391,257.75,339.5z M357.334,346.666c-12.5,7.667-40.167-9.333-25-27.833
			C339.667,309.666,369.001,317.333,357.334,346.666z"/>
		<path fill="#2C2C2C" d="M430.688,226.406c-0.291-3.292-0.188-12.573-2.354-20.24l-0.666,2.668c1,5,1.666,18.5,1.666,19.166
			s-10.415,16.916-10.915,17.75l-5.585,11.916c6.335-10.166,16.188-27.123,17.188-28.291c0.396,3.542,10.23,7.708,11.312-3.041
			C441.667,222.334,438.219,215.688,430.688,226.406z M440.708,227c-1.541,8.084-9.583,6.292-10.041,1.375
			C436.012,218.708,441.438,221.141,440.708,227z"/>
		<path fill="#2C2C2C" d="M262.25,424.75c-0.375-18,28.5-2.625,6.916,15.084c-14.416,11.166-31.33-4.168-15.333-33.833
			c7.86-14.577,31.141-49.617,32.502-53.667c13.334-39.668-4.95-79.794-32.333-74.166c-30,6.164-21.168,34.583-7.418,30.999
			c14.944-3.896,7.523-17.058,3.918-20.667l0,0c8.165,5.334,9.499,19.417-3.666,21.999c-17,3.665-25.334-28.001,6.667-34
			c30.753-4.281,47.166,37.666,34,77.333c-2.536,7.64-30.269,50.32-32.333,53.167c-12.42,16.501-6.562,45.092,13.166,31.667
			C287.875,423.188,262.75,408,262.25,424.75L262.25,424.75z"/>
		<path fill="#2C2C2C" d="M208.312,298.688c-4-9-20.625-13.125-32.438,10.375c-8.291-7.23-15.541-40.729-10.125-53.562l-3.584,6.666
			c1.334,30.5,9.145,44.132,13.668,49.167C193.5,331,214.938,313.562,208.312,298.688z M176.792,310.001
			c11.021-23.751,27.333-17.938,30.333-11.292C214.125,315.625,189.25,328.312,176.792,310.001z"/>
		<path fill="#2C2C2C" d="M175.25,310.125c-12.5,21.625-9.625,25.625-19.5,39.625c-15.895,22.533-38.5,17.75-43,3
			c-8.352-27.373-17.609-57.354-28.625-72.375c-9.625-13.125-34.5-4.875-21.25,16.25C72.625,311.25,90.453,306.812,94.5,305
			c35.75-16,44.24-5.59,47.75,1.5c6.375,12.875-7.527,20.228-11.375,20.75c-23,3.125-20.349-25.812-18.625-34
			c1-4.75,8.125-16.25,12.125-18.5l-3,0.25c0,0-16.861,11.018-11,39.375c3.875,18.75,22.236,16.313,27.875,12.25
			c8.5-6.125,8.83-17.435,3.625-24.375c-12.375-16.5-43.869-0.912-48,0.5c-14.625,5-24.998,1.77-29.875-6.625
			c-13-22.375,9.624-24.381,18.75-14.875c12,12.5,24.189,60.318,28.625,71.75c8.875,22.875,34.875,13.625,45.5-2.125
			c6.584-9.759,12.125-30.375,18.959-39.542C176.557,310.362,175.25,310.125,175.25,310.125z"/>
		<path fill="#2C2C2C" d="M282.75,115.75c7.625-2.375,7.623,14.299-2.625,13.875c-21.125-0.875-17.5-28.25-1.25-30.75
			C290.457,97.094,307.25,105.5,302.25,126c-10.026,41.107-80.261,37.705-91.25,38.25c-15.125,0.75-73.425-11.889-86.75-2.875
			c-12.75,8.625,0.5,16.375,4.125,7.125c-1.875,11.25-20,2.5-6-8.125c12.846-9.75,70.125,2.625,88.75,2.375
			c6-0.08,81,2.75,89.375-36.875c1.904-9.011,0-27.25-21.25-25.75c-10.905,0.77-21,26.625,0.625,27.75
			C288.005,128.298,289.375,114.375,282.75,115.75z"/>
		<path fill="#2C2C2C" d="M428.375,207.75c1-2.875,10.755-30.615,22.125-30.125c14.5,0.625,10.57,22.959-1.375,27
			c-25.5,8.625-28.25-27.992-28.25-36.75c0-15.625-1.904-66.621,33.375-76.375c21.25-5.875,35.125,20.5,12.375,30.5
			c-14.484,6.367-23.94-0.203-22.75-22.375c1-18.625,5.796-36.525-0.625-58.375c-8.375-28.5-44.151-36.818-63.75-18.5
			c-30.625,28.625-11.696,83.871,21.25,76.5C437.625,91,432.198,51.881,430,44.5c-5.25-17.625-27.094-28.776-33.25-31.5
			C368.5,0.5,342.613,15.799,336,26.75c-15.625,25.875-6.997,41.936,6.625,38.125C360.5,59.875,353.5,38.5,342.25,41
			c-7.527,1.673-4.96,10.876,0,8.75c-5.875,4-9.965-6.598-0.375-10.125c10.875-4,22.625,19,1,26.5
			c-11.999,4.161-28.125-11.875-8.125-39.75c10.127-14.115,37.625-27.625,63.625-14.5c7.708,3.891,31.25,19.5,32.875,32.25
			c0.61,4.791,9.25,47.375-30,57.25c-29.15,7.334-58.75-43.125-22.625-79c2.965-2.943,9.875-8.25,22.375-9.875
			c9.264-1.204,36.5,2.5,44.125,28.25c6.447,21.773,1.375,40.375,0.125,58.625c-0.256,3.741-2.75,30.625,20.5,21.625
			c17.511-6.778,13.375-33.25-11-27.875c-8.822,1.945-33.625,9.625-32.5,74.5c0.08,4.625,2.625,26,10.5,32.625
			c5.513,4.637,13.125,3.625,15.75,2.875c7.379-2.108,18.625-21.5,1.875-23.875c-5.591-0.793-15,10.125-21.5,32L428.375,207.75z"/>
		<path fill="#2C2C2C" d="M330.331,142.502c34-15.5,32.839-32.648,30.834-40.167c-5.666-21.251-29.583-19.668-36.834-14
			c-8.862,6.927-14.499,26.082-0.5,30.667c9.663,3.164,20.813-7.893,13.667-15.5c-5.166-5.5-8.667,2.333-8.667,2.333
			c0.167-3.5,5.001-8.167,10.167-2.833c4.781,4.936,1.018,18.793-15.5,17.5c-5.332-0.418-17.94-14.943,0-33.167
			c6.252-5.751,32.002-10.21,39,14.833c2.342,8.379-2.247,19.832-3.664,21.666c26.083-17.667,41.417-7.084,44.25,0.583
			c4.194,11.351-4.633,20.854-11.833,22.25c-13.751,2.666-12.648-11.098-6.584-13.75c3.739-1.636,7.239,0.146,5.708,4.458
			c1.406-4.188-3.062-5.312-5.458-3.708c-6.649,4.454-3.584,14.083,6.25,12c11.809-2.501,12.579-16.567,10.584-20.5
			c-8.75-17.249-31.56-8.251-42.5,0c-5.083,3.833-22.333,17.333-26.334,17.75L330.331,142.502z"/>
		<path fill="#2C2C2C" d="M274,42.166c-9.5,8.332-20.965,28.826-21.166,53.334c-0.167,20.332-6.178,29.098-15.167,30.5
			c-18.167,2.832-17.417-17.835-11.167-25.334c5.486-6.58,16.416-2.084,15.167,5.667c-1.101,6.825-9.665,5.333-9.667,0.667
			c0.5,3.165,7.334,5.165,8.167-0.834c0.965-6.942-7.948-10.16-12.667-4.5c-5.416,6.499-6.917,23.248,9.75,22.999
			c14.264-0.213,13.967-26.327,14.25-29.332c1.333-14.085,2.25-34.833,24.5-58.167L274,42.166z"/>
		<path fill="#2C2C2C" d="M361.625,276.375c-16.875,2.5-22.375,22-36.75,26.5c0.25-2.75-3.375-22.125-15.5-12.25
			c-4,3.5-5.375,16.125,14,14.25c0.375,5.75-1.25,30.5-36.125,48L286.625,355c7.5-2.625,40.25-21.5,38.25-50.75
			c13.5-3.5,20.625-23.25,36.75-26.25c22.625,0.25,20.375,23.75,9.75,26.75c-13.75,3.5-12.875-11.625-6.875-13.125
			c5.5-1.25,6,4.625,0.875,5.625l0.625,1.125c6.5-1.125,5.75-10-1.75-8.375s-9,19.875,7.5,16
			C386.125,302.125,384.375,275.625,361.625,276.375z M323.188,303.406c-10.5,2.562-19.938-4.469-12.562-11.844
			C319.5,284,323.75,302.094,323.188,303.406z"/>
		<path fill="#2C2C2C" d="M246.5,469.166c26.25-24.666,77.75-66.291,54-88.334c-14.833-14.333-37.875,7.918-23,19.667
			c7.162,5.657,15.25-2.249,11.667-8.334l0,0c3.333,9.334-8.021,9.19-10.333,7.167c-13.334-11.667,5.674-30.529,21-17.167
			c13,11.334-5.595,37.094-8.334,40.667c-11.5,15-45,43.833-45,43.833c-15.25-10.04-15-20.54-14-31.29
			c16.75-28.625-13.75-44.625-24.125-42.5l-4.75,2.25c27.5-4.75,39.5,21.25,27.875,38.75c-14.25,19.25-29.875-6-18.5-16.125
			c9.625-8.125,18.875,3.75,9.5,8.25c12.5-5.375-2.125-17.75-10.5-9.5c-12.75,14,4.625,36,18.375,21.375
			C230.75,445.875,229.125,458.75,246.5,469.166z"/>
		<path fill="#2C2C2C" d="M353.667,228.084c15.167-45.334,49.645-80.224,68.5-89.084c41.5-19.499,52.372,5.217,38,16.168
			c-24.5,18.666-60.247,8.266-76.833,1.332c-31.5-13.166-46.168-14.245-48.5-14.332c-26.667-1-40.406,14.231-42.667,22.666
			c-4.333,16.167,6.429,14.057,9.5,12.166c6.5-3.999,2.164-9.666-2.333-8.832c0,0,8.164,2.166,1.667,7.666
			c-2.335,1.977-11.17,0-7.334-10.666c0.911-2.534,8.331-21,40.834-21.667c5.002-0.103,37.664,9.501,48.166,14.499
			c4.426,2.107,44.499,21.835,78.332-1.498c13.814-9.527,10.834-39.5-39-18.834c-15.048,6.24-47.167,34.166-66.499,79.999
			L353.667,228.084z"/>
		<path fill="#2C2C2C" d="M336.375,25.125c6.875-16.375-7-18.375-11.625-12.75c-8.295,10.088,2,15.375,5.75,10.875
			c2.547-3.057,1.375-6,1-6.625c1,4.875-3.688,9.562-7.125,6.375c-6.313-5.854,5.5-16.25,10.5-10.375
			c2.657,3.122,2.75,8.5-4.75,21.5C328.549,36.857,336.375,25.125,336.375,25.125z"/>
		<path fill="#2C2C2C" d="M325.375,49.375c-9.208,23.209-32.657,34.283-46.25,22.75c-13.209-11.207-3.542-34.875,1.875-40
			c14.253-13.486,26.308-7.39,29.375,0c5.5,13.25-0.375,17.125-4,20.75c-4.324,4.324-14.458,0.292-11.25-5.5
			c-2.958,3.292,1.875,12.292,11.375,6.5c12.296-7.496,6.234-19.171,4.875-22.25c-6.125-13.875-24.75-9.625-31.125-0.5
			c-2.191,3.137-18.25,22.959-2.125,42.125c1.824,2.169,26.5,17.125,47.5-19.75L325.375,49.375z"/>
		<path fill="#2C2C2C" d="M251.25,100.084C248,79.5,222.5,78.75,209,102.75l-1.583-0.917c22.5-31.75,43.667-14.583,44-5.667
			L251.25,100.084z"/>
		<path fill="#2C2C2C" d="M210,99.75c9.25-27.5,12.045-49.955,3.5-61.375c-13.375-17.875-31.414-4.941-35.25,4.875
			C169.75,65,183.399,74.115,193.375,70c14.542-6,11.329-14.508,8.5-18.625c-3.293-4.791-10.875-4.875-10.541,0.791
			c-0.502-4.999,6.998-4.332,9.291-0.166c1.294,2.352,5.041,11-7.5,16.625c-8.729,3.916-22.626-5.791-13.75-24.75
			c7.499-16.018,25.457-15.791,32.5-4.625c9.505,15.07,3.957,34.5-4.625,63.25L210,99.75z"/>
		<path fill="#2C2C2C" d="M143.375,33.875c8.125-3.375,8.914-12.617,3.75-19.625c-5.25-7.125-13.848-7.535-18.625-3.125
			c-1.625,1.5-2,2.625-2,2.625c7.75-8.5,17.375-2.625,19.5,1.25c6.784,12.371-0.125,15.875-3.625,18.375L143.375,33.875z"/>
		<path fill="#2C2C2C" d="M37.75,116.125C28,77.5,39.805,49.85,60.125,40.5C86.75,28.25,94.499,50.167,92,58.125
			C87.25,73.25,74.125,72,71.25,65.25c-4.246-9.969,6.5-13.25,7.875-7.875c-4.062-5.562-10.062,1.75-6.75,7
			c6.05,9.588,16.545,1.297,18.625-6.5c3-11.25-10-27.125-30.25-16c-9.711,5.335-31.375,22.875-23.25,67L37.75,116.125z"/>
		<path fill="#2C2C2C" d="M214.5,40.25c-10.25-22.5-38.148-38.406-58-39.375c-20.5-1-40.377,14.497-31.375,24.625
			c4,4.5,10.303,1.613,9.5-2c-0.5,3.625-4.346,4.964-8.375,1.25c-6.375-5.875,3.875-22.875,30.125-22.5
			c10.631,0.152,34.75,6.5,51.875,31.25L214.5,40.25z"/>
		<path fill="#2C2C2C" d="M35.334,185c-54.667-21-28.498-88.447-1.5-93.666C78.667,82.666,73.443,124.472,57,128.166
			c-23,5.168-22.387-24.803-16.332-38.832C54.334,57.668,93.678,37.061,107,32.668c31.334-10.332,60.073,11.375,67.166,25.333
			c15.502,30.501-7.007,51.89-16.666,59.667c-19.666,15.832-49.383,15.443-59.5-4.334c-14.666-28.667,4.56-49.531,15.333-51.833
			c21.835-4.665,28.296,17.058,22.333,24.667c-4.832,6.168-11.616,5.611-13,0.666c1.668,4,7.501,4.166,12.002-0.998
			c4.502-5.167,2.484-26.721-20.501-23.002c-11.333,1.833-28.167,25.5-15.166,49.835c4.696,8.79,23.333,26.331,57.833,3.833
			c8.1-5.281,32.167-29.002,16.167-57.666c-5.562-9.963-27.167-35.169-65.833-25c-8.602,2.262-52.834,23.832-66.167,57.833
			c-3.188,8.128-8.667,40.499,15.833,35c16.668-3.741,15.5-35.501-12.333-35c-4.499,0.081-27.167,1.165-36.499,29.165
			c-4.34,13.021-7.5,51.668,31.332,64L35.334,185z"/>
	</g>
</g>
<g id="Layer_9">
	<path d="M-453-700.75c-10.25-22.5-38.148-38.407-58-39.375c-20.5-1-40.377,14.497-31.375,24.625c4,4.5,10.303,1.614,9.5-2
		c-0.5,3.625-4.345,4.964-8.375,1.25c-6.375-5.875,3.875-22.875,30.125-22.5c10.631,0.152,34.75,6.5,51.875,31.25L-453-700.75z"/>
	<path d="M-632.167-556c-54.667-21-28.498-88.447-1.5-93.667c44.833-8.667,39.61,33.138,23.167,36.833
		c-23,5.168-22.387-24.803-16.333-38.832c13.666-31.667,53.01-52.273,66.333-56.667c31.334-10.332,60.073,11.375,67.167,25.333
		c15.501,30.501-7.007,51.89-16.667,59.667c-19.666,15.833-49.383,15.443-59.5-4.333c-14.666-28.667,4.56-49.531,15.333-51.833
		c21.834-4.666,28.295,17.057,22.333,24.667c-4.833,6.168-11.617,5.611-13,0.667c1.667,3.999,7.5,4.166,12.001-0.999
		c4.502-5.167,2.484-26.721-20.5-23.002c-11.333,1.833-28.167,25.5-15.166,49.835c4.696,8.79,23.333,26.331,57.833,3.833
		c8.1-5.282,32.167-29.002,16.167-57.667c-5.561-9.963-27.167-35.168-65.833-25c-8.602,2.262-52.833,23.832-66.167,57.833
		c-3.188,8.128-8.667,40.499,15.833,35c16.667-3.741,15.5-35.501-12.333-35c-4.5,0.081-27.167,1.166-36.5,29.166
		c-4.34,13.021-7.5,51.667,31.333,64L-632.167-556z"/>
</g>
</svg>
