<?xml version="1.0" encoding="utf-8"?>
<!-- Generator: Adobe Illustrator 16.0.4, SVG Export Plug-In . SVG Version: 6.00 Build 0)  -->
<!DOCTYPE svg PUBLIC "-//W3C//DTD SVG 1.1//EN" "http://www.w3.org/Graphics/SVG/1.1/DTD/svg11.dtd">
<svg version="1.1" id="Layer_1" xmlns="http://www.w3.org/2000/svg" xmlns:xlink="http://www.w3.org/1999/xlink" x="0px" y="0px"
	 width="130.75px" height="120.75px" viewBox="0 0 130.75 120.75" enable-background="new 0 0 130.75 120.75" xml:space="preserve">
<path fill="#FFFFFF" d="M19.125,41.765C8.5,57.833,39.589,64.021,40.875,42.14C42,23,19.582,25.57,10.5,34.64
	c-12,11.985-9.251,24.861-6.125,29.875C20,89.584,44.667,70.834,51.875,47.64c4.282-13.779,18.623-37.969,29-38.125
	c6.542-0.099,8,10.125-4.25,7.625C61.946,14.145,49.62-3.587,30.375,1.64C17.083,5.25,8.125,25.765,17.75,35.015
	s26.25,2.5,27.375-5.625c-3.208,9.193-18.542,12.193-26,4.875C8.238,23.583,20.75,5.25,31,2.64
	c17.128-4.361,34.715,14.049,45.125,15.75C91.584,20.917,87.75,7.89,80.75,8.14C69.036,8.559,59.167,23.666,51,47.015
	c-9.75,27.875-32.917,37.902-45.375,17c-4.104-6.885-4.5-18.141,5.5-28.375c6.062-6.205,28.456-13.225,28.25,6.125
	C39.167,61.333,9.875,57.016,19.125,41.765z"/>
<path fill="#FFFFFF" d="M54.625,105.516c-19.645,0-32.284-23.24-24.625-43C36.25,46.39,58.905,45.167,66.125,43.39
	c15.75-3.875,35.503-17.497,38.25-20c9.875-9-1.541-13.307-8.75-9.125C80.911,22.8,66.949,64.531,66.5,68.891
	c-1.75,17,12.5,11.938,17,3.25c4.731-9.135,6.836-10.136,11.5-27.625c0.75-2.812,1.793-1.591,1.438,0
	c-2.354,10.541-16.572,56.112-18.938,60.875c-7.625,15.359-22.652,17.679-30.625,12.5c-17.125-11.125-11.045-24.877-5-30.625
	c12.75-12.125,29.667-1.057,35.125,5c9.125,10.125,24.769,8.585,34.125,1.875c24.75-17.75,18.533-48.893,2.75-52.5
	C137,47.765,132.692,82.006,112,95.266c-12.875,8.25-27.653,5.65-35.75-2.125c-12.625-12.125-25.452-11.82-33.375-5
	c-9.875,8.5-6.398,20.887,4.625,28.5c9.75,6.734,24.834-2.501,28.625-12c1.703-4.27,12.5-36.125,13-39.5
	c0,0-0.187,0.583-4.188,7.375c-8.543,14.501-22.05,10.439-19.938-3.5c3.125-20.625,22.034-52.519,29.75-56
	c11.667-5.265,19.417,2.318,10.875,11c-9.242,9.393-34.326,19.181-39.25,20.25c-19,4.125-30.169,6.251-35,18.125
	C21,87.891,43.25,105.266,54.625,105.516z"/>
</svg>
