<?xml version="1.0" encoding="utf-8"?>
<!-- Generator: Adobe Illustrator 16.0.4, SVG Export Plug-In . SVG Version: 6.00 Build 0)  -->
<!DOCTYPE svg PUBLIC "-//W3C//DTD SVG 1.1//EN" "http://www.w3.org/Graphics/SVG/1.1/DTD/svg11.dtd">
<svg version="1.1" id="Layer_1" xmlns="http://www.w3.org/2000/svg" xmlns:xlink="http://www.w3.org/1999/xlink" x="0px" y="0px"
	 width="130.75px" height="120.75px" viewBox="0 0 130.75 120.75" enable-background="new 0 0 130.75 120.75" xml:space="preserve">
<path fill="#FFFFFF" d="M19.125,41.765c-8.417,17.109,20.464,22.256,21.75,0.375C42,23,19.582,25.57,10.5,34.64
	c-12,11.985-9.251,24.861-6.125,29.875c16,25.858,40.5,7.191,47.5-16.875c4.282-13.779,18.623-37.969,29-38.125
	c7.833-0.307,8,10.125-4.25,7.625C61.946,14.145,49.62-3.587,30.375,1.64C17.083,5.25,8.125,25.765,17.75,35.015
	s22.958,4.859,27.375-5.625c-4.75,9.151-17.958,12.136-25.417,4.818C8.821,23.526,20.792,5.651,31.042,3.042
	C48.17-1.32,65.965,17.173,76.375,18.875c15.459,2.527,13.833-11.167,4.333-11.167c-11.714,0.419-22.333,15.984-30.5,39.333
	c-7.333,25.999-31.709,37.901-44.167,17c-4.104-6.886-4.5-17.933,5.5-28.167c6.062-6.205,28.04-13.459,27.833,5.891
	C39.167,61.333,12.708,57.542,19.125,41.765z"/>
<path fill="#FFFFFF" d="M54.625,105.516c-19.645,0-32.284-23.24-24.625-43C36.25,46.39,58.988,44.65,66.208,42.874
	c15.75-3.875,35.253-17.664,38-20.167c9.875-9-0.167-14.167-8.583-8.442c-14.714,8.535-28.301,50.25-28.75,54.609
	c-1,15.167,11.666,11.855,16.166,3.167c4.73-9.135,6.836-10.178,11.5-27.667c0.75-2.812,2.252-1.449,1.896,0.142
	c-2.354,10.541-16.571,56.112-18.938,60.875c-7.625,15.359-22.652,17.68-30.625,12.5c-17.125-11.125-11.045-24.877-5-30.625
	c12.75-12.125,29.667-1.057,35.125,5c9.125,10.125,24.77,8.586,34.125,1.875c23.083-17.434,19.625-46.6,2.75-52.5
	c23.125,6.124,18.858,40.973-1.833,54.233c-12.875,8.25-25.834,8-36-2.167c-12.625-12.125-24.578-12.153-32.5-5.333
	c-9,9.333-6.689,20.554,4.333,28.167c9.75,6.734,24.209-2.334,28-11.834c1.703-4.27,12.333-36.125,12.833-39.5
	c0,0,0.229,0.518-3.771,7.309c-8.543,14.502-22.05,10.439-19.938-3.5c3.125-20.625,21.493-52.994,29.209-56.475
	c12-6.5,21.5,0.5,11.416,11.476c-9.242,9.393-34.326,19.181-39.25,20.25c-19,4.125-30.001,6.9-34.833,18.774
	C22.542,88.707,43.25,105.266,54.625,105.516z"/>
</svg>
