<?xml version="1.0" encoding="utf-8"?>
<!-- Generator: Adobe Illustrator 16.0.4, SVG Export Plug-In . SVG Version: 6.00 Build 0)  -->
<!DOCTYPE svg PUBLIC "-//W3C//DTD SVG 1.1//EN" "http://www.w3.org/Graphics/SVG/1.1/DTD/svg11.dtd">
<svg version="1.1" id="Layer_3" xmlns="http://www.w3.org/2000/svg" xmlns:xlink="http://www.w3.org/1999/xlink" x="0px" y="0px"
	 width="130.75px" height="120.75px" viewBox="0 0 130.75 120.75" enable-background="new 0 0 130.75 120.75" xml:space="preserve">
<g>
	<path fill="#FFFFFF" d="M65.438,1.475c-32.643,0-59.104,26.462-59.104,59.103c0,32.644,26.462,59.104,59.104,59.104
		c32.642,0,59.104-26.461,59.104-59.104C124.541,27.937,98.079,1.475,65.438,1.475z M65.438,117.931
		c-31.676,0-57.353-25.678-57.353-57.354c0-31.674,25.677-57.351,57.353-57.351c31.675,0,57.353,25.677,57.353,57.351
		C122.79,92.253,97.112,117.931,65.438,117.931z"/>
	<path fill="#FFFFFF" d="M24.83,48.211C13.995,61.344,42.589,67.687,43.875,48.54c1.095-16.309-19.155-13.683-26.596-6.568
		c-9.735,9.306-9.931,18.829-5.364,26.157c14.119,22.657,35.571,4.159,41.592-14.773c3.828-12.042,16.307-33.603,25.392-33.383
		c4.302,0.104,7.005,8.866-3.721,6.677C62.325,24.025,50.596,7.1,33.987,12.492C25.56,15.228,12.681,31.903,23.627,42.3
		c8.474,8.05,22.985,2.189,23.969-4.925c-1.86,5.91-14.941,12.435-22.766,4.269c-11.711-12.223,4.3-26.325,9.705-28.275
		C49.092,8.114,65.547,26.867,74.74,27.743c13.598,1.294,10.179-9.193,4.05-8.974c-10.257,0.365-18.898,13.594-26.049,34.039
		c-8.537,24.407-28.786,33.49-39.731,14.883c-4.08-6.937-4.377-16.197,4.816-24.844c3.652-3.434,25.284-11.711,24.736,5.364
		C42.074,63.416,16.731,61.562,24.83,48.211z"/>
	<path fill="#FFFFFF" d="M55.915,104.03c-17.201,0-28.269-20.35-21.562-37.653c5.472-14.116,25.31-15.188,31.632-16.744
		c13.791-3.392,31.087-15.319,33.492-17.512c8.646-7.88-2.909-10.626-7.662-7.99C78.79,31.355,66.706,68.143,66.312,71.96
		c-1.532,14.886,10.945,10.453,14.886,2.847c4.143-7.997,5.985-8.875,10.07-24.188c0.655-2.462,1.569-1.393,1.258,0
		c-2.062,9.228-14.859,48.977-16.581,53.302c-5.146,12.915-18.717,17.074-26.926,11.456c-13.95-9.55-9.562-22.294-4.268-27.327
		c11.164-10.616,25.695-0.657,30.756,4.379c7.224,7.185,20.504,7.77,29.881,1.642c23.045-15.066,17.913-42.612,2.407-45.968
		c20.249,5.363,18.134,35.167-1.642,46.954c-11.502,6.853-24.214,4.946-31.303-1.861c-11.056-10.618-22.828-10.927-29.224-4.378
		c-7.626,7.806-5.788,18.911,3.94,25.466c10.289,6.932,21.854-2.701,25.174-11.019c1.491-3.738,10.945-31.632,11.383-34.588
		c0,0-0.163,0.512-3.666,6.459c-7.48,12.698-19.308,9.142-17.458-3.065c2.736-18.057,19.008-46.721,26.05-49.032
		c14.667-4.815,14.215,4.614,9.522,9.632C92.69,41.097,70.515,49.464,66.203,50.4c-16.637,3.612-26.416,5.473-30.646,15.868
		C26.472,88.597,45.955,103.811,55.915,104.03z"/>
</g>
</svg>
