<?xml version="1.0" encoding="utf-8"?>
<!-- Generator: Adobe Illustrator 16.0.4, SVG Export Plug-In . SVG Version: 6.00 Build 0)  -->
<!DOCTYPE svg PUBLIC "-//W3C//DTD SVG 1.1//EN" "http://www.w3.org/Graphics/SVG/1.1/DTD/svg11.dtd">
<svg version="1.1" id="Layer_1" xmlns="http://www.w3.org/2000/svg" xmlns:xlink="http://www.w3.org/1999/xlink" x="0px" y="0px"
	 width="56.693px" height="56.693px" viewBox="0 0 56.693 56.693" enable-background="new 0 0 56.693 56.693" xml:space="preserve">
<g>
	<path d="M30.071,27.101v-0.077c-0.016,0.025-0.033,0.052-0.05,0.077H30.071z"/>
	<path d="M49.265,4.667H7.145c-2.017,0-3.651,1.597-3.651,3.563v42.612c0,1.967,1.635,3.562,3.651,3.562h42.12
		c2.019,0,3.653-1.597,3.653-3.562V8.23C52.919,6.262,51.283,4.667,49.265,4.667z M18.475,46.304H11.01v-22.46h7.466V46.304z
		 M14.743,20.777h-0.05c-2.504,0-4.124-1.726-4.124-3.88c0-2.203,1.67-3.88,4.223-3.88c2.555,0,4.125,1.677,4.175,3.88
		C18.967,19.052,17.345,20.777,14.743,20.777z M45.394,46.304h-7.465V34.286c0-3.018-1.08-5.078-3.781-5.078
		c-2.062,0-3.29,1.39-3.831,2.731c-0.197,0.479-0.245,1.148-0.245,1.82v12.543h-7.465c0,0,0.098-20.354,0-22.459h7.465v3.18
		c0.992-1.53,2.766-3.709,6.729-3.709c4.911,0,8.595,3.211,8.595,10.109L45.394,46.304L45.394,46.304z"/>
</g>
<rect x="5.096" y="7.096" width="43.5" height="43.25"/>
<path fill="#FFFFFF" d="M37.565,38.873H30.04c-5.354,0-6.208-2.37-6.208-4.565c0-1.043,0.065-2.762,0.129-4.867h12.574
	c1.881,0,5.472-0.771,5.472-4.213c0-3.439-1.657-5.695-3.878-5.695H24.117c-0.014-4.964-0.337-9.91-5.186-9.91
	c-2.005,0-3.632,0.824-4.318,2.869c-0.9,2.688-0.662,5.834-0.65,8.632c0.003,0.531,0.005,1.066,0.007,1.598
	c0.006,1.833,0.043,3.677,0.051,5.519c0.005,1.981,0.008,3.964,0.008,5.945c0,11.099,10.087,14.244,12.022,14.244
	c1.935,0,9.515,0.181,10.884,0.181s5.299-0.363,5.299-4.338C42.234,40.299,39.447,38.873,37.565,38.873z"/>
</svg>
