<?xml version="1.0" encoding="iso-8859-1"?>
<!-- Generator: Adobe Illustrator 18.0.0, SVG Export Plug-In . SVG Version: 6.00 Build 0)  -->
<!DOCTYPE svg PUBLIC "-//W3C//DTD SVG 1.1//EN" "http://www.w3.org/Graphics/SVG/1.1/DTD/svg11.dtd">
<svg version="1.1" id="Capa_1" xmlns="http://www.w3.org/2000/svg" xmlns:xlink="http://www.w3.org/1999/xlink" x="0px" y="0px"
	 viewBox="0 0 85.734 85.686" style="enable-background:new 0 0 85.734 85.686;" xml:space="preserve">
<g>
	<path d="M82.312,26.156C77.791,15.618,70.115,7.942,59.578,3.422C54.272,1.146,48.75,0,42.937,0C37.125,0,31.56,1.157,26.25,3.422
		C15.624,7.954,7.903,15.601,3.375,26.156C1.107,31.444,0,36.984,0,42.796c0,5.813,1.107,11.399,3.375,16.688
		C7.903,70.039,15.624,77.733,26.25,82.265c5.31,2.264,10.875,3.421,16.687,3.421c5.813,0,11.335-1.145,16.641-3.421
		c10.537-4.521,18.213-12.244,22.734-22.781c2.276-5.306,3.422-10.875,3.422-16.688C85.734,36.984,84.588,31.462,82.312,26.156z
		 M77.531,57.468c-1.989,4.632-4.641,8.672-8.016,12.047c-3.328,3.328-7.359,6-12,8.015c-4.64,2.016-9.468,3-14.578,3
		c-6.797,0-13.131-1.677-18.937-5.062c-5.772-3.365-10.369-7.963-13.734-13.734c-3.385-5.807-5.063-12.141-5.063-18.938
		s1.688-13.078,5.063-18.843c3.375-5.766,7.962-10.37,13.734-13.734c5.806-3.386,12.14-5.063,18.937-5.063
		s13.078,1.688,18.844,5.063c5.765,3.375,10.341,7.978,13.687,13.734c3.358,5.776,5.063,12.046,5.063,18.843
		C80.531,47.906,79.526,52.819,77.531,57.468z"/>
	<path d="M45.047,26.39c-0.539-0.54-1.172-0.753-1.875-0.797c-0.047-0.003-0.047,0-0.047,0c-0.656,0-1.212,0.288-1.735,0.797
		L18.047,49.124c-1.024,0.997-1.069,2.613-0.094,3.657c1.041,1.113,2.659,1.064,3.75,0l21.422-20.906l20.906,20.906
		c1.078,1.078,2.718,1.078,3.656,0c0.984-0.797,0.984-2.86,0-3.657L45.047,26.39z"/>
</g>
<g>
</g>
<g>
</g>
<g>
</g>
<g>
</g>
<g>
</g>
<g>
</g>
<g>
</g>
<g>
</g>
<g>
</g>
<g>
</g>
<g>
</g>
<g>
</g>
<g>
</g>
<g>
</g>
<g>
</g>
</svg>
